<svg width="410" height="465" viewBox="0 0 410 465" fill="none" xmlns="http://www.w3.org/2000/svg">
<path fill-rule="evenodd" clip-rule="evenodd" d="M275.339 88.5257C275.419 87.9793 275.927 87.6011 276.474 87.6811C285.844 89.0523 299.447 91.4697 309.752 96.9457C314.913 99.6886 319.334 103.243 321.952 107.901C324.589 112.592 325.336 118.294 323.338 125.177C320.579 134.682 314.266 142.819 306.57 149.464C298.871 156.113 289.736 161.314 281.229 164.943C273.725 168.146 264.785 171.187 255.669 172.765C246.562 174.342 237.21 174.47 228.924 171.777C224.755 170.422 219.806 167.734 215.696 164.217C211.602 160.714 208.211 156.277 207.396 151.388C203.617 128.718 220.712 112.604 240.089 104.77C243.335 103.458 247.453 102.202 251.652 101.531C255.836 100.863 260.187 100.762 263.851 101.84C264.485 102.026 265.915 102.484 267.157 102.891C267.78 103.095 268.363 103.289 268.782 103.433C268.99 103.504 269.165 103.565 269.286 103.61C269.342 103.63 269.406 103.654 269.459 103.678L269.46 103.678C269.467 103.681 269.557 103.719 269.648 103.781C269.673 103.798 269.747 103.849 269.825 103.934L269.827 103.936C269.861 103.973 270.163 104.298 270.07 104.795C269.957 105.394 269.431 105.552 269.361 105.572C269.226 105.61 269.115 105.611 269.083 105.611C268.912 105.611 268.751 105.568 268.611 105.492C268.606 105.49 268.6 105.488 268.594 105.486C268.496 105.45 268.34 105.395 268.135 105.325C267.727 105.185 267.153 104.995 266.534 104.791C265.29 104.384 263.887 103.935 263.286 103.759C260.027 102.8 256.011 102.86 251.967 103.506C247.937 104.15 243.965 105.361 240.838 106.625C221.777 114.33 205.825 129.796 209.368 151.059C210.073 155.283 213.065 159.334 216.997 162.698C220.912 166.048 225.629 168.604 229.542 169.875C237.407 172.431 246.4 172.34 255.328 170.794C264.248 169.25 273.035 166.265 280.445 163.104C288.807 159.536 297.754 154.435 305.263 147.951C312.776 141.463 318.8 133.635 321.418 124.619C323.284 118.189 322.552 113.05 320.209 108.881C317.847 104.679 313.787 101.355 308.814 98.7119C298.849 93.4163 285.563 91.0325 276.184 89.66C275.638 89.58 275.259 89.0722 275.339 88.5257ZM268.328 103.955C268.296 103.992 268.266 104.032 268.24 104.073C268.267 104.03 268.297 103.99 268.328 103.955ZM269.083 103.611C269.065 103.611 269.047 103.611 269.029 103.612C269.055 103.611 269.073 103.611 269.083 103.611Z" fill="black"/>
<path fill-rule="evenodd" clip-rule="evenodd" d="M274.748 142.626C272.431 142.746 269.999 143.342 268.492 143.806C264.068 145.168 260.623 146.713 257.028 149.589C256.465 150.04 253.963 152.141 251.828 154.151C250.753 155.162 249.809 156.115 249.247 156.811C249.149 156.932 249.067 157.04 249.001 157.134C249.061 157.285 249.085 157.453 249.064 157.626C248.995 158.175 248.495 158.563 247.947 158.495C247.646 158.457 247.182 158.296 246.953 157.794C246.761 157.373 246.866 156.973 246.931 156.781C247.072 156.369 247.384 155.934 247.691 155.554C248.345 154.745 249.375 153.713 250.457 152.694C252.635 150.645 255.177 148.508 255.779 148.027C259.628 144.948 263.322 143.304 267.904 141.895C269.493 141.406 272.099 140.761 274.645 140.629C275.918 140.563 277.222 140.623 278.394 140.921C279.567 141.219 280.677 141.774 281.457 142.749C281.661 143.004 282.322 143.617 283.212 144.387C284.008 145.076 284.911 145.829 285.646 146.432C286.034 146.743 286.334 146.985 286.556 147.164C286.868 147.416 287.079 147.587 287.133 147.638C287.136 147.642 287.167 147.671 287.202 147.711C287.226 147.74 287.299 147.844 287.341 147.921C287.437 148.241 287.088 149.13 286.483 149.363C286.296 149.353 286.058 149.286 286.003 149.261C285.977 149.248 285.936 149.225 285.921 149.216C285.896 149.201 285.876 149.187 285.871 149.183C285.848 149.167 285.827 149.151 285.821 149.146L285.82 149.146C285.801 149.131 285.774 149.11 285.744 149.087C285.683 149.038 285.592 148.966 285.478 148.874C285.249 148.69 284.921 148.424 284.538 148.11C284.488 148.069 284.437 148.027 284.386 147.985C284.175 147.816 283.939 147.627 283.674 147.415C283.625 147.376 283.581 147.333 283.541 147.287C283.002 146.839 282.43 146.356 281.902 145.899C281.063 145.172 280.239 144.428 279.895 143.998C279.473 143.471 278.809 143.09 277.901 142.859C276.992 142.628 275.907 142.567 274.748 142.626Z" fill="black"/>
<path fill-rule="evenodd" clip-rule="evenodd" d="M253.232 122.048C253.021 122.387 252.767 122.712 252.48 122.942C252.175 123.186 251.666 123.447 251.143 123.661C250.598 123.884 249.934 124.098 249.275 124.207C248.648 124.31 247.87 124.345 247.2 124.049C246.843 123.892 246.509 123.636 246.273 123.254C246.04 122.877 245.944 122.446 245.944 122C245.944 120.618 246.566 119.575 247.492 118.907C248.379 118.266 249.497 118.001 250.531 117.991C250.849 117.988 251.172 118.009 251.49 118.054C251.732 117.918 251.975 117.812 252.216 117.751C252.575 117.659 253.053 117.641 253.481 117.93C253.901 118.214 254.053 118.645 254.104 118.952C254.123 119.06 254.132 119.169 254.134 119.277C254.641 119.805 254.97 120.52 254.86 121.4C254.792 121.948 254.292 122.336 253.744 122.268C253.549 122.243 253.374 122.164 253.232 122.048ZM251.921 120.207C251.864 120.354 251.798 120.504 251.724 120.651C251.516 121.066 251.319 121.31 251.23 121.38C251.153 121.443 250.856 121.618 250.386 121.81C249.938 121.993 249.423 122.155 248.95 122.233C248.445 122.316 248.139 122.278 248.007 122.22C247.987 122.21 247.977 122.203 247.974 122.201C247.973 122.2 247.972 122.197 247.97 122.194C247.968 122.188 247.964 122.179 247.961 122.163C247.953 122.133 247.944 122.081 247.944 122C247.944 121.29 248.233 120.838 248.662 120.528C249.128 120.192 249.809 119.998 250.551 119.991C251.056 119.986 251.531 120.068 251.921 120.207Z" fill="black"/>
<path fill-rule="evenodd" clip-rule="evenodd" d="M270.111 125.708C270.124 125.94 270.11 126.196 270.075 126.471C270.007 127.019 269.507 127.408 268.959 127.339C268.837 127.324 268.723 127.287 268.62 127.234C268.474 127.738 268.491 128.162 268.622 128.417C268.715 128.6 269.008 128.97 270.17 128.97C270.951 128.97 271.811 128.768 272.691 128.469C272.677 128.454 272.663 128.437 272.65 128.421C272.305 127.99 272.374 127.36 272.806 127.015C273.559 126.413 274.333 126.036 275.033 125.851C275.69 125.677 276.422 125.637 277.001 125.907C277.311 126.051 277.666 126.333 277.801 126.812C277.935 127.288 277.782 127.719 277.591 128.02C277.234 128.579 276.532 129.042 275.648 129.434C274.112 130.117 272.069 130.97 270.17 130.97C268.564 130.97 267.396 130.415 266.841 129.327C266.336 128.34 266.504 127.214 266.783 126.413C266.93 125.991 267.127 125.598 267.346 125.273C267.545 124.978 267.834 124.631 268.208 124.434C268.402 124.332 268.731 124.212 269.119 124.306C269.544 124.408 269.803 124.706 269.935 124.975C270.058 125.224 270.098 125.487 270.111 125.708ZM268.109 125.775C268.109 125.773 268.109 125.772 268.109 125.772C268.109 125.772 268.109 125.773 268.109 125.775Z" fill="black"/>
<path fill-rule="evenodd" clip-rule="evenodd" d="M181.145 184.187C181.213 183.639 181.713 183.25 182.261 183.318C184.099 183.548 186.042 184.341 187.956 185.416C189.88 186.496 191.831 187.894 193.695 189.391C197.414 192.377 200.858 195.821 203.116 198.079L203.132 198.095C205.805 200.768 208.692 203.316 211.605 205.886L211.623 205.902C214.522 208.46 217.447 211.041 220.159 213.753C222.736 216.33 225.693 218.559 228.72 220.839L228.739 220.853C231.74 223.114 234.81 225.426 237.508 228.123C238.207 228.823 239.318 229.658 240.666 230.633C240.924 230.819 241.188 231.009 241.458 231.203C242.576 232.005 243.785 232.874 244.928 233.775C246.347 234.892 247.718 236.101 248.741 237.362C249.752 238.61 250.52 240.028 250.52 241.55C250.52 242.102 250.073 242.55 249.52 242.55C248.968 242.55 248.52 242.102 248.52 241.55C248.52 240.7 248.081 239.725 247.187 238.622C246.304 237.532 245.069 236.432 243.691 235.346C242.586 234.475 241.423 233.639 240.308 232.839C240.034 232.642 239.762 232.447 239.495 232.254C238.171 231.297 236.926 230.37 236.093 229.537C233.506 226.95 230.544 224.716 227.517 222.436L227.48 222.409C224.485 220.153 221.427 217.849 218.744 215.167C216.079 212.501 213.195 209.957 210.282 207.386L210.276 207.38C207.373 204.819 204.44 202.231 201.718 199.509C199.452 197.243 196.073 193.865 192.443 190.95C190.629 189.493 188.772 188.168 186.977 187.16C185.173 186.147 183.489 185.487 182.013 185.303C181.465 185.234 181.076 184.735 181.145 184.187Z" fill="black"/>
<path fill-rule="evenodd" clip-rule="evenodd" d="M20.7484 12.8257C20.708 13.3013 20.4771 13.8732 20.1692 14.489C19.6905 15.4463 19.427 16.4814 19.2202 17.6081C19.1478 18.0028 19.0794 18.431 19.0088 18.8728C18.8892 19.6217 18.7633 20.4099 18.6006 21.1419C17.4497 26.3208 17.2155 31.3324 17.2155 36.8651C17.2155 39.2668 17.7296 41.6905 18.2759 44.266L18.2806 44.2884C18.8207 46.8348 19.3892 49.5242 19.3892 52.2819C19.3892 53.6415 19.2029 54.9576 19.0261 56.2059L19.0171 56.27C18.8347 57.5584 18.6647 58.7827 18.6647 60.0507C18.6647 61.0113 18.9057 61.9065 19.1822 62.9336C19.2487 63.1807 19.3173 63.4355 19.3851 63.7006C19.7178 65.0021 20.0035 66.4966 19.506 68.1136C18.7187 70.6721 18.497 73.7312 18.4836 76.9037C18.477 78.4834 18.5217 80.0713 18.5686 81.6235C18.5718 81.7292 18.575 81.8347 18.5782 81.9401C18.6219 83.3761 18.6647 84.7821 18.6647 86.0942C18.6647 89.9228 18.8445 93.7157 19.0258 97.5214L19.0284 97.5755C19.2085 101.356 19.3892 105.149 19.3892 108.958C19.3892 118.454 18.2999 127.865 17.2168 137.222L17.2089 137.29C16.121 146.689 15.0419 156.035 15.0419 165.473C15.0419 176.348 13.4018 187.054 11.7753 197.672L11.7699 197.707C10.1377 208.362 8.52095 218.928 8.52095 229.636C8.52095 236.467 8.33945 243.308 8.1584 250.132L8.15833 250.134C7.97713 256.964 7.79641 263.777 7.79641 270.573C7.79641 276.156 8.06086 281.867 8.32774 287.632C8.41389 289.492 8.50029 291.358 8.57812 293.227C8.89629 300.867 9.06988 308.532 8.47751 315.937C6.30797 343.056 4.89819 369.729 4.89819 396.845C4.89819 397.512 4.92547 398.936 4.96327 400.911C5.07207 406.592 5.26802 416.825 5.15167 426.625C5.0731 433.242 4.85244 439.724 4.36325 444.563C4.11949 446.974 3.8045 449.027 3.3907 450.496C3.1859 451.224 2.93858 451.877 2.62193 452.37C2.322 452.836 1.80002 453.394 1 453.394C0.447715 453.394 0 452.947 0 452.394C0 451.891 0.371683 451.475 0.855488 451.405C0.875913 451.381 0.904107 451.343 0.939631 451.288C1.09775 451.042 1.28071 450.611 1.46554 449.954C1.831 448.656 2.13261 446.743 2.37339 444.362C2.85327 439.615 3.07339 433.206 3.15181 426.601C3.26767 416.843 3.07502 406.791 2.96565 401.084C2.92661 399.047 2.89819 397.564 2.89819 396.845C2.89819 369.66 4.31157 342.931 6.48388 315.777C7.06602 308.5 6.89746 300.936 6.57986 293.31C6.50292 291.463 6.41715 289.611 6.33138 287.759C6.06393 281.983 5.79641 276.206 5.79641 270.573C5.79641 263.749 5.97777 256.913 6.15875 250.092L6.15903 250.081C6.34022 243.252 6.52095 236.437 6.52095 229.636C6.52095 218.764 8.16065 208.06 9.78701 197.443L9.79295 197.405C11.4251 186.75 13.0419 176.182 13.0419 165.473C13.0419 155.9 14.1364 146.44 15.2222 137.06L15.2235 137.049C16.311 127.653 17.3892 118.338 17.3892 108.958C17.3892 105.197 17.2104 101.443 17.0295 97.6474L17.0281 97.6166C16.8471 93.8181 16.6647 89.9781 16.6647 86.0942C16.6647 84.814 16.6228 83.4374 16.5789 81.9929C16.5758 81.8903 16.5727 81.7873 16.5696 81.684C16.5226 80.1333 16.4768 78.5136 16.4837 76.8953C16.4972 73.6718 16.7182 70.3731 17.5944 67.5254C17.9204 66.4659 17.7633 65.4319 17.4474 64.196C17.3948 63.9901 17.3364 63.7754 17.276 63.5531C16.993 62.5117 16.6647 61.3032 16.6647 60.0507C16.6647 58.6206 16.8569 57.261 17.0368 55.9897L17.0369 55.9892C17.2197 54.6971 17.3892 53.4998 17.3892 52.2819C17.3892 49.7676 16.8709 47.281 16.3241 44.7033L16.2978 44.579C15.7669 42.0769 15.2155 39.478 15.2155 36.8651C15.2155 31.2827 15.45 26.0998 16.6482 20.7081C16.8022 20.0153 16.9064 19.3569 17.0156 18.6671C17.0875 18.2135 17.1614 17.7464 17.2531 17.247C17.4345 16.2587 17.674 15.2334 18.0919 14.2267C18.0404 14.2633 17.988 14.3009 17.9348 14.3394C17.1781 14.8866 16.3212 15.5645 15.4773 16.2321C15.303 16.3699 15.1293 16.5073 14.9572 16.6431C13.987 17.408 13.0181 18.1593 12.3644 18.5328C11.8849 18.8068 11.274 18.6402 11 18.1607C10.726 17.6812 10.8926 17.0703 11.3721 16.7963C11.8669 16.5135 12.7034 15.8731 13.7189 15.0725C13.8843 14.9421 14.0533 14.8084 14.2246 14.6729C15.0682 14.0054 15.9675 13.2939 16.7628 12.7188C17.2413 12.3727 17.7063 12.0582 18.1172 11.8253C18.3226 11.7088 18.5322 11.6026 18.7357 11.5225C18.9262 11.4475 19.1784 11.3681 19.4507 11.3626C19.7399 11.3567 20.1754 11.4394 20.4837 11.8347C20.7582 12.1867 20.7686 12.5874 20.7484 12.8257ZM0.816155 451.444C0.816121 451.444 0.819255 451.441 0.82566 451.437C0.819391 451.443 0.816189 451.445 0.816155 451.444Z" fill="black"/>
<path fill-rule="evenodd" clip-rule="evenodd" d="M155.611 2.36191C148.91 2.54299 142.175 2.72455 135.444 2.72455C129.813 2.72455 124.258 3.20281 118.683 3.71597C118.286 3.75251 117.889 3.78922 117.492 3.82596C112.323 4.3039 107.129 4.78419 101.895 4.89796C93.628 5.07768 85.4269 6.03769 77.1878 7.0993C76.0568 7.24503 74.9248 7.39272 73.7918 7.54054C66.6865 8.46754 59.5424 9.39961 52.3496 9.88725C51.7756 9.92617 50.3277 9.94767 48.387 9.97649C47.7148 9.98647 46.9834 9.99733 46.2088 10.0101C43.1672 10.0602 39.3969 10.1399 35.7222 10.3083C32.0396 10.477 28.4856 10.7334 25.865 11.1319C24.546 11.3324 23.5196 11.561 22.8441 11.8102C22.5411 11.922 22.3594 12.02 22.2631 12.0881C22.1629 12.5346 21.7641 12.8682 21.2874 12.8682C20.7351 12.8682 20.2874 12.4205 20.2874 11.8682C20.2874 11.2524 20.6495 10.8175 20.9763 10.5547C21.3041 10.2911 21.7219 10.0925 22.1518 9.9339C23.0212 9.61308 24.2086 9.36073 25.5644 9.15459C28.2936 8.73965 31.9341 8.47974 35.6307 8.31039C39.3353 8.14067 43.129 8.06058 46.1759 8.01037C46.9956 7.99686 47.7571 7.98552 48.4465 7.97526C50.3453 7.947 51.6973 7.92688 52.2143 7.89183C59.3401 7.40873 66.4162 6.48566 73.5253 5.55831C74.66 5.41029 75.7955 5.26216 76.9322 5.11569C85.1757 4.05352 93.4689 3.08067 101.852 2.89843C107.011 2.78626 112.138 2.31232 117.321 1.83315C117.714 1.79688 118.107 1.76057 118.5 1.72439C124.072 1.21152 129.71 0.724547 135.444 0.724547C142.144 0.724547 148.852 0.543834 155.557 0.362638L155.618 0.360998C162.298 0.180472 168.977 0 175.616 0C184.366 0 192.975 0.363301 201.555 0.725438L201.559 0.725603C210.145 1.08796 218.701 1.4491 227.381 1.4491C234.329 1.4491 241.228 1.81299 248.073 2.17504L248.13 2.17804C254.965 2.53955 261.746 2.8982 268.52 2.8982H321.251C323.168 2.8982 325.252 2.76017 327.45 2.61458C328.965 2.51416 330.535 2.41014 332.143 2.34532C335.987 2.19033 339.935 2.27141 343.245 3.30599C346.219 4.2353 349.866 4.33528 353.681 4.18048C355.157 4.12062 356.678 4.02059 358.182 3.92164C360.474 3.77094 362.727 3.62275 364.724 3.62275H381.751C383.951 3.62275 387.245 3.68383 390.498 3.96941C393.713 4.25162 397.027 4.7628 399.184 5.72157C399.908 6.04337 401.146 6.32147 402.536 6.4599C403.916 6.59728 405.324 6.58514 406.365 6.39501C406.892 6.29874 407.252 6.1694 407.46 6.04318C407.518 6.00775 407.553 5.98004 407.574 5.96099C407.555 5.89729 407.491 5.74388 407.272 5.48663C406.948 5.10665 406.38 4.61359 405.469 4.00571C405.009 3.69936 404.885 3.07849 405.191 2.61896C405.497 2.15943 406.118 2.03524 406.578 2.34159C407.563 2.99858 408.301 3.61043 408.794 4.18961C409.273 4.752 409.633 5.41567 409.577 6.14298C409.516 6.92129 409.011 7.44087 408.497 7.75283C407.992 8.05965 407.361 8.24605 406.724 8.36243C405.437 8.5976 403.828 8.59838 402.338 8.45006C400.86 8.3028 399.378 7.99659 398.372 7.54919C396.548 6.73866 393.533 6.24352 390.323 5.96175C387.151 5.68333 383.922 5.62275 381.751 5.62275H364.724C362.767 5.62275 360.655 5.76281 358.436 5.90999C356.923 6.01035 355.36 6.11402 353.763 6.17884C349.915 6.33493 345.973 6.25378 342.649 5.21495C339.689 4.29 336.037 4.18994 332.224 4.3437C330.74 4.40352 329.212 4.5039 327.704 4.60293C325.432 4.75208 323.207 4.8982 321.251 4.8982H268.52C261.693 4.8982 254.868 4.5372 248.05 4.17662L247.968 4.17225C241.114 3.80976 234.267 3.4491 227.381 3.4491C218.659 3.4491 210.067 3.08648 201.495 2.72468L201.471 2.72366C192.884 2.36125 184.317 2 175.616 2C169.004 2 162.348 2.17986 155.658 2.36063L155.611 2.36191ZM407.6 5.93072C407.601 5.93082 407.599 5.93423 407.594 5.94075C407.597 5.9339 407.6 5.93062 407.6 5.93072Z" fill="black"/>
<path fill-rule="evenodd" clip-rule="evenodd" d="M269.083 5.07178C269.636 5.07178 270.083 5.51949 270.083 6.07178C270.083 13.3361 269.539 20.7691 268.997 28.1681L268.994 28.2157C268.45 35.644 267.91 43.0381 267.91 50.2693C267.91 54.2286 267.078 57.9347 266.223 61.4944C266.159 61.7617 266.095 62.0281 266.031 62.2936C265.234 65.5963 264.468 68.7721 264.285 72.0613C264.21 73.4213 264.086 74.789 263.964 76.1468C263.924 76.5853 263.885 77.0228 263.847 77.4586C263.691 79.2568 263.562 81.0497 263.562 82.874C263.562 84.0294 263.561 85.0615 263.498 85.8791C263.467 86.2899 263.418 86.6795 263.335 87.0236C263.256 87.3559 263.127 87.7253 262.888 88.0341C262.621 88.3788 262.23 88.6253 261.739 88.6621C261.301 88.6949 260.896 88.5516 260.563 88.3801C259.904 88.0411 259.135 87.3815 258.233 86.4793C257.842 86.0888 257.842 85.4557 258.233 85.0651C258.623 84.6746 259.256 84.6746 259.647 85.0651C260.471 85.8891 261.029 86.3442 261.391 86.5543C261.438 86.3558 261.477 86.0844 261.504 85.7262C261.56 85.0014 261.562 84.0545 261.562 82.874C261.562 80.9608 261.697 79.0982 261.854 77.286C261.894 76.8336 261.934 76.3856 261.974 75.941C262.096 74.5918 262.215 73.2726 262.289 71.9503C262.482 68.4708 263.29 65.123 264.079 61.8547C264.146 61.5784 264.213 61.3028 264.279 61.0276C265.134 57.465 265.91 53.9665 265.91 50.2693C265.91 42.9524 266.456 35.4847 266.999 28.0697L267 28.0607C267.544 20.6352 268.083 13.2629 268.083 6.07178C268.083 5.51949 268.531 5.07178 269.083 5.07178Z" fill="black"/>
<path fill-rule="evenodd" clip-rule="evenodd" d="M275.359 71.039C275.493 70.5032 276.036 70.1774 276.571 70.3113C277.425 70.5246 278.148 70.6562 278.705 70.7511C278.793 70.7661 278.88 70.7807 278.964 70.7948C279.136 70.8237 279.295 70.8503 279.426 70.8743C279.593 70.9049 279.832 70.9502 280.021 71.0268C280.077 71.0494 280.16 71.0871 280.249 71.1468C280.331 71.2014 280.483 71.3176 280.595 71.5212C280.726 71.7609 280.762 72.0507 280.675 72.3275C280.602 72.5637 280.463 72.7139 280.386 72.7864C280.239 72.9251 280.075 73.0022 280.003 73.0348C279.908 73.0781 279.805 73.1169 279.704 73.1516C279.392 73.2597 278.89 73.4025 278.218 73.5937C278.064 73.6373 277.902 73.6835 277.731 73.7324C276.886 73.9737 275.991 74.4569 275.024 75.0542C274.712 75.2468 274.385 75.4567 274.051 75.6707C273.405 76.0854 272.734 76.5155 272.105 76.8652C270.013 78.0273 268.349 79.2673 267.208 81.2076C267.021 81.5263 266.783 82.086 266.519 82.7852C266.333 83.2757 266.15 83.7932 265.973 84.2915C265.903 84.4894 265.834 84.6843 265.766 84.8733C265.545 85.4918 265.312 86.1241 265.119 86.4741C265.073 86.5566 264.984 86.7105 264.849 86.8445C264.784 86.9087 264.633 87.0444 264.399 87.1162C264.106 87.2056 263.764 87.168 263.481 86.9608C263.255 86.7949 263.157 86.5842 263.119 86.4882C263.074 86.3768 263.052 86.274 263.041 86.2035C263.017 86.061 263.011 85.9096 263.011 85.7725C263.011 85.3482 263.276 84.9857 263.648 84.8404C263.718 84.6575 263.796 84.4429 263.884 84.1988C263.946 84.0232 264.013 83.8367 264.081 83.6437C264.26 83.1386 264.455 82.5894 264.648 82.078C264.91 81.385 265.2 80.677 265.484 80.1936C266.89 77.8041 268.915 76.3496 271.134 75.1169C271.713 74.7949 272.282 74.4293 272.888 74.0399C273.235 73.8173 273.593 73.587 273.973 73.3526C274.622 72.9519 275.312 72.553 276.027 72.235C275.527 72.0772 275.23 71.5548 275.359 71.039ZM279.174 71.215C279.173 71.2154 279.172 71.2159 279.17 71.2165C279.183 71.2096 279.186 71.2094 279.174 71.215ZM263.357 85.5256C263.357 85.5254 263.359 85.5223 263.363 85.5169C263.359 85.5231 263.357 85.5258 263.357 85.5256Z" fill="black"/>
<path fill-rule="evenodd" clip-rule="evenodd" d="M274.433 65.3148C274.926 65.0678 275.527 65.268 275.774 65.762C276.048 66.3096 275.908 66.8468 275.65 67.218C275.43 67.5363 275.109 67.7684 274.834 67.9351C274.266 68.2797 273.482 68.5851 272.718 68.8495C272.126 69.0543 271.492 69.2523 270.91 69.4339C270.728 69.4908 270.55 69.5461 270.381 69.5995C269.633 69.8359 269.088 70.0218 268.806 70.1628C265.923 71.6041 263.497 73.9342 261.096 76.3355C260.705 76.726 260.072 76.726 259.682 76.3354C259.291 75.9449 259.291 75.3117 259.682 74.9212C262.064 72.5393 264.7 69.9798 267.912 68.374C268.364 68.1477 269.075 67.9146 269.779 67.6924C269.962 67.6347 270.148 67.5765 270.336 67.5179C270.912 67.3381 271.504 67.1533 272.064 66.9595C272.82 66.6979 273.427 66.4499 273.797 66.2253C273.829 66.2059 273.856 66.1881 273.88 66.1722C273.894 65.8191 274.094 65.4839 274.433 65.3148Z" fill="black"/>
<path fill-rule="evenodd" clip-rule="evenodd" d="M275.837 58.956C274.948 59.2604 274.237 59.5172 273.878 59.697C272.939 60.1665 271.989 60.9701 270.92 61.8747C270.659 62.0954 270.391 62.3221 270.115 62.5514C268.815 63.6293 267.261 64.8182 265.584 65.0278C265.036 65.0963 264.537 64.7075 264.468 64.1595C264.4 63.6115 264.788 63.1117 265.336 63.0432C266.349 62.9166 267.477 62.1406 268.838 61.0118C269.065 60.8234 269.299 60.6248 269.539 60.4216C270.618 59.5059 271.807 58.4966 272.983 57.9082C273.489 57.6556 274.342 57.3539 275.189 57.0639C275.411 56.9878 275.636 56.9113 275.861 56.8351C276.438 56.6394 277.01 56.445 277.521 56.2597C277.509 56.1969 277.502 56.1319 277.502 56.0654C277.502 55.5131 277.95 55.0654 278.502 55.0654C278.998 55.0654 279.452 55.0903 279.784 55.1893C279.903 55.2247 280.306 55.349 280.533 55.7559C280.852 56.3256 280.55 56.8277 280.408 57.0024C280.263 57.1814 280.082 57.3037 279.965 57.376C279.831 57.4592 279.68 57.5368 279.529 57.608C279.226 57.7509 278.852 57.8996 278.456 58.0469C277.859 58.269 277.155 58.5078 276.48 58.737C276.261 58.8113 276.045 58.8846 275.837 58.956ZM278.94 55.6568C278.94 55.6568 278.939 55.6583 278.934 55.6612C278.938 55.6582 278.94 55.6568 278.94 55.6568Z" fill="black"/>
<path fill-rule="evenodd" clip-rule="evenodd" d="M276.015 50.5039C275.206 50.783 274.278 51.1037 273.554 51.5058C273.175 51.7166 272.701 52.1339 272.128 52.7354C271.718 53.1666 271.303 53.6427 270.868 54.1404C270.705 54.3276 270.538 54.5179 270.369 54.71C269.767 55.3924 269.127 56.0917 268.491 56.6397C267.882 57.164 267.134 57.6796 266.309 57.7826C265.761 57.8511 265.261 57.4624 265.193 56.9144C265.124 56.3664 265.513 55.8666 266.061 55.7981C266.268 55.7722 266.636 55.5981 267.186 55.1244C267.708 54.6743 268.269 54.0672 268.869 53.3868C269.022 53.214 269.177 53.0357 269.335 52.8553C269.779 52.3467 270.237 51.8216 270.679 51.3569C271.27 50.7354 271.92 50.1257 272.583 49.7575C273.185 49.4228 273.931 49.1244 274.606 48.8782C274.605 48.859 274.604 48.8397 274.604 48.8203C274.604 48.268 275.052 47.8203 275.604 47.8203C276.058 47.8203 276.42 47.83 276.691 47.8528C276.825 47.8642 276.962 47.8806 277.089 47.9079C277.173 47.9261 277.417 47.9793 277.635 48.1524C277.764 48.2543 277.949 48.4508 278.014 48.7619C278.081 49.0816 277.984 49.3467 277.89 49.5069C277.74 49.7621 277.516 49.8968 277.451 49.9353L277.448 49.937C277.265 50.0472 277.026 50.1418 276.828 50.216C276.583 50.3078 276.307 50.4031 276.015 50.5039Z" fill="black"/>
<path fill-rule="evenodd" clip-rule="evenodd" d="M275.288 37.7274C275.812 37.5527 276.378 37.8359 276.553 38.3598C276.671 38.7142 276.636 39.0569 276.57 39.3218C276.502 39.5908 276.385 39.8496 276.252 40.0859C275.988 40.5578 275.594 41.0653 275.139 41.5733C274.224 42.5968 272.942 43.7565 271.586 44.8412C270.227 45.9281 268.761 46.965 267.463 47.7361C266.815 48.1211 266.192 48.4498 265.634 48.6854C265.105 48.9091 264.529 49.0952 264.011 49.0952C263.459 49.0952 263.011 48.6475 263.011 48.0952C263.011 47.5429 263.459 47.0952 264.011 47.0952C264.113 47.0952 264.383 47.0431 264.856 46.8431C265.301 46.6549 265.839 46.3742 266.441 46.0167C267.643 45.3027 269.033 44.3221 270.337 43.2792C271.644 42.2338 272.834 41.1512 273.649 40.24C274.06 39.7806 274.345 39.3976 274.507 39.1086C274.573 38.9919 274.606 38.9111 274.622 38.8632C274.529 38.3784 274.807 37.8878 275.288 37.7274ZM274.633 38.8216C274.633 38.8216 274.633 38.8229 274.632 38.8254C274.633 38.823 274.633 38.8217 274.633 38.8216Z" fill="black"/>
<path fill-rule="evenodd" clip-rule="evenodd" d="M274.984 30.7162C274.5 31.0874 273.829 31.6416 273.011 32.4603C272.57 32.9008 271.017 34.4216 269.39 35.8594C268.578 36.5769 267.732 37.2876 266.989 37.8353C266.618 38.1084 266.256 38.3534 265.926 38.5404C265.624 38.7113 265.243 38.8965 264.86 38.9444C264.312 39.0129 263.812 38.6242 263.744 38.0762C263.675 37.5281 264.064 37.0283 264.612 36.9598C264.605 36.9607 264.606 36.9604 264.615 36.957C264.643 36.947 264.745 36.9106 264.941 36.8001C265.174 36.6677 265.465 36.4739 265.803 36.2251C266.476 35.7288 267.271 35.0627 268.066 34.3607C269.652 32.9593 271.173 31.4694 271.597 31.0461C271.901 30.7412 272.189 30.469 272.456 30.226C272.025 30.1151 271.706 29.7235 271.706 29.2575C271.706 28.7052 272.154 28.2575 272.706 28.2575C273.641 28.2575 274.289 28.2066 274.704 28.174C274.72 28.1728 274.735 28.1716 274.749 28.1704C274.762 28.1695 274.775 28.1684 274.788 28.1674C274.949 28.1546 275.17 28.137 275.334 28.1502C275.387 28.1545 275.493 28.1654 275.614 28.2053C275.713 28.2381 275.998 28.3465 276.184 28.6621C276.402 29.0321 276.322 29.3939 276.246 29.5777C276.177 29.7426 276.08 29.8531 276.041 29.8968C275.954 29.993 275.854 30.071 275.801 30.1116C275.736 30.1619 275.659 30.218 275.583 30.2732C275.567 30.2846 275.551 30.2962 275.535 30.3082C275.385 30.4165 275.203 30.5479 274.984 30.7162ZM274.603 28.5093C274.604 28.5082 274.605 28.5077 274.605 28.5077C274.605 28.5077 274.605 28.5082 274.603 28.5093Z" fill="black"/>
<path fill-rule="evenodd" clip-rule="evenodd" d="M275.383 22.3304C274.078 23.2918 272.167 24.66 271.665 25.0077C268.061 27.5032 265.388 29.667 262.585 32.8199C262.218 33.2327 261.586 33.2699 261.174 32.903C260.761 32.5361 260.724 31.904 261.09 31.4912C264.033 28.1807 266.842 25.9145 270.527 23.3633C270.979 23.0506 272.68 21.8328 273.96 20.8944C274.034 20.7215 274.157 20.5673 274.325 20.4552C274.803 20.1363 275.132 19.9227 275.332 19.7997C275.412 19.7507 275.53 19.6792 275.634 19.6338L275.635 19.6331C275.658 19.6232 275.745 19.5847 275.86 19.5624C275.905 19.5535 276.071 19.5215 276.277 19.5683C276.392 19.5944 276.561 19.6543 276.72 19.7951C276.89 19.9457 276.994 20.14 277.036 20.3366C277.106 20.6667 276.988 20.919 276.963 20.9724L276.962 20.9732C276.921 21.0617 276.875 21.1249 276.854 21.1529C276.809 21.213 276.766 21.257 276.749 21.2747C276.639 21.3843 276.422 21.5522 276.229 21.6997C276.003 21.8715 275.71 22.0896 275.383 22.3304Z" fill="black"/>
<path fill-rule="evenodd" clip-rule="evenodd" d="M273.784 14.4727C273.463 14.6405 273.12 14.8199 272.774 15.0047C272.62 15.0867 272.144 15.4018 271.457 15.8938C270.795 16.3687 269.991 16.9691 269.212 17.5837C268.429 18.201 267.687 18.8203 267.14 19.3349C266.865 19.5941 266.659 19.8089 266.525 19.9718C266.475 20.0318 266.443 20.0753 266.425 20.1034C266.296 20.5753 265.836 20.8929 265.336 20.8305C264.788 20.762 264.4 20.2622 264.468 19.7142C264.501 19.4554 264.609 19.2438 264.685 19.1141C264.771 18.969 264.875 18.8292 264.98 18.701C265.191 18.4442 265.467 18.1634 265.769 17.8788C266.378 17.306 267.172 16.6455 267.973 16.0134C268.778 15.3786 269.607 14.7598 270.292 14.2684C270.954 13.7941 271.541 13.3958 271.833 13.24C272.214 13.0368 272.556 12.8578 272.868 12.695C272.604 12.5149 272.43 12.2118 272.43 11.8682C272.43 11.3159 272.878 10.8682 273.43 10.8682C274.31 10.8682 275.014 10.8992 275.466 11.0177C275.59 11.05 275.745 11.1009 275.897 11.1891C276.045 11.2752 276.27 11.4433 276.399 11.7427C276.696 12.4276 276.218 12.9512 276.115 13.0594C275.942 13.2399 275.718 13.3945 275.522 13.5189C275.31 13.6526 275.059 13.7948 274.786 13.9431C274.502 14.0973 274.158 14.2771 273.784 14.4727ZM266.403 20.1389C266.403 20.1389 266.405 20.1361 266.408 20.1304C266.405 20.1359 266.404 20.1388 266.403 20.1389ZM274.967 12.9546C274.97 12.9554 274.971 12.9558 274.971 12.9558C274.971 12.9558 274.97 12.9555 274.967 12.9546Z" fill="black"/>
<path fill-rule="evenodd" clip-rule="evenodd" d="M280.727 111.414C281.308 111.102 282.026 110.968 282.865 110.968H287.574L287.575 112.968H285.34C285.549 113.095 285.735 113.27 285.878 113.508C286.268 114.159 286.078 114.869 285.887 115.304C285.676 115.786 285.33 116.255 284.945 116.661C284.209 117.437 283.07 118.246 281.94 118.364C281.324 118.428 280.633 118.288 280.1 117.735C279.599 117.215 279.379 116.475 279.331 115.649C279.325 115.557 279.319 115.457 279.312 115.352C279.29 115.026 279.264 114.653 279.265 114.305C279.266 113.836 279.31 113.291 279.515 112.773C279.733 112.225 280.119 111.741 280.727 111.414ZM281.294 115.016C281.297 115.063 281.3 115.11 281.303 115.157C281.311 115.276 281.32 115.4 281.327 115.532C281.362 116.119 281.504 116.31 281.539 116.347C281.54 116.347 281.54 116.347 281.54 116.348C281.545 116.354 281.573 116.391 281.732 116.375C281.927 116.354 282.212 116.256 282.554 116.049C282.886 115.847 283.217 115.577 283.494 115.284C283.709 115.058 283.869 114.842 283.973 114.662C283.597 114.678 282.994 114.79 282.094 115.09C281.818 115.182 281.53 115.147 281.294 115.016ZM284.316 114.685C284.316 114.686 284.311 114.684 284.303 114.681C284.313 114.683 284.317 114.685 284.316 114.685Z" fill="black"/>
<path fill-rule="evenodd" clip-rule="evenodd" d="M277.427 6.48345C277.516 6.90695 277.606 7.48907 277.699 8.23325C277.767 8.78127 277.379 9.28106 276.831 9.34957C276.786 9.35509 276.743 9.35764 276.699 9.35738C276.582 11.3358 276.495 14.105 276.431 17.2801C276.257 25.9048 276.257 37.3306 276.257 43.3921L276.257 43.8602C276.257 47.1514 276.074 50.4314 275.894 53.6392L275.887 53.749C275.708 56.9284 275.533 60.0335 275.533 63.0608C275.533 64.1005 275.552 65.1658 275.572 66.2435C275.612 68.4466 275.653 70.7018 275.531 72.8977C275.485 73.7314 275.318 74.5371 275.167 75.2706C275.149 75.3548 275.132 75.4381 275.115 75.5203C274.947 76.345 274.808 77.1074 274.808 77.914C274.808 78.5217 274.848 78.9383 274.885 79.2081C274.903 79.3441 274.922 79.4475 274.937 79.5341L274.938 79.5403C274.945 79.5788 274.953 79.6276 274.96 79.6711L274.96 79.6734C274.965 79.7068 274.98 79.8062 274.976 79.9183C274.974 79.9748 274.966 80.1047 274.909 80.2556C274.847 80.4224 274.7 80.6702 274.396 80.8147C274.112 80.9501 273.853 80.9159 273.726 80.8863C273.598 80.8565 273.504 80.8084 273.461 80.7856C273.379 80.7412 273.31 80.69 273.286 80.6723L273.284 80.6707C273.264 80.6563 273.237 80.6357 273.215 80.619C273.206 80.6118 273.197 80.6054 273.191 80.6005C273.086 80.521 272.917 80.3979 272.637 80.2576C272.143 80.0106 271.942 79.4099 272.189 78.9159C272.321 78.6526 272.553 78.4727 272.816 78.3996C272.811 78.2492 272.808 78.0875 272.808 77.914C272.808 76.8882 272.985 75.9535 273.156 75.1198C273.173 75.0373 273.189 74.9561 273.206 74.8759C273.361 74.1208 273.497 73.4632 273.534 72.7867C273.652 70.6617 273.613 68.5393 273.573 66.3821C273.553 65.2856 273.533 64.1802 273.533 63.0608C273.533 59.9767 273.711 56.8234 273.889 53.6637L273.897 53.5266C274.078 50.311 274.257 47.0862 274.257 43.8602L274.257 43.3862C274.257 37.3277 274.257 25.8852 274.431 17.2398C274.52 12.8179 274.656 9.07623 274.866 7.171C274.918 6.70289 274.98 6.28512 275.064 5.98524C275.096 5.87072 275.171 5.6122 275.35 5.39578C275.447 5.27829 275.68 5.04653 276.066 5.00596C276.478 4.96269 276.771 5.1646 276.912 5.29848C277.142 5.51734 277.24 5.80472 277.278 5.91462C277.334 6.07949 277.383 6.2736 277.427 6.48345ZM272.981 79.964C272.983 79.9744 272.982 79.9726 272.981 79.9618C272.981 79.9626 272.981 79.9633 272.981 79.964ZM276.997 6.50154C277.001 6.4893 277.003 6.484 277.003 6.48441C277.003 6.48482 277.001 6.49094 276.997 6.50154ZM275.369 6.52082C275.37 6.52018 275.373 6.52708 275.379 6.54346C275.372 6.52965 275.369 6.52147 275.369 6.52082Z" fill="black"/>
<path fill-rule="evenodd" clip-rule="evenodd" d="M271.635 168.932C272.187 168.932 272.635 169.379 272.635 169.932C272.635 175.095 271.593 180.264 270.543 185.329C270.51 185.488 270.477 185.647 270.444 185.805C269.42 190.741 268.417 195.578 268.287 200.39C268.176 204.487 267.664 208.495 267.162 212.423C267.082 213.05 267.002 213.675 266.924 214.299C266.355 218.848 265.886 223.311 266.113 227.846C266.44 234.387 266.07 240.689 265.693 247.11C265.587 248.921 265.48 250.742 265.388 252.58C265.301 254.328 264.974 256.053 264.661 257.702C264.634 257.847 264.606 257.993 264.579 258.137C264.239 259.944 263.94 261.667 263.94 263.399C263.94 264.336 263.968 265.295 263.997 266.282L264.001 266.407C264.03 267.431 264.06 268.483 264.055 269.533C264.047 271.63 263.904 273.777 263.341 275.821C262.256 279.751 261.599 283.84 260.927 288.018L260.877 288.327C260.191 292.592 259.479 296.944 258.266 301.189C256.12 308.699 254.897 319.292 254.52 327.206C254.176 334.436 253.043 342.814 251.437 349.843C251.201 350.873 250.988 351.936 250.771 353.014C250.34 355.163 249.897 357.371 249.244 359.494C249.004 360.273 248.943 360.844 248.942 361.26C248.942 361.611 248.982 361.862 249.023 362.118C249.032 362.173 249.04 362.228 249.049 362.284C249.05 362.293 249.052 362.302 249.053 362.312C249.091 362.557 249.194 363.22 248.682 363.739C248.46 363.965 248.191 364.088 247.973 364.166C247.747 364.246 247.484 364.309 247.196 364.367C246.655 364.475 246.128 364.124 246.019 363.583C245.911 363.041 246.262 362.514 246.804 362.406C246.893 362.388 246.969 362.371 247.035 362.356C246.994 362.095 246.942 361.717 246.942 361.257C246.943 360.631 247.038 359.864 247.332 358.906C247.958 356.873 248.364 354.845 248.781 352.762C249.002 351.659 249.226 350.54 249.487 349.397C251.067 342.486 252.183 334.226 252.522 327.111C252.902 319.128 254.137 308.362 256.343 300.639C257.518 296.526 258.214 292.288 258.903 288.009L258.959 287.656C259.626 283.511 260.299 279.327 261.413 275.289C261.907 273.495 262.047 271.553 262.055 269.525C262.06 268.512 262.031 267.493 262.001 266.465L261.997 266.33C261.969 265.352 261.94 264.365 261.94 263.399C261.94 261.458 262.275 259.567 262.614 257.767C262.64 257.628 262.666 257.49 262.692 257.352C263.009 255.677 263.31 254.084 263.39 252.48C263.484 250.603 263.593 248.757 263.7 246.93C264.075 240.528 264.436 234.368 264.115 227.946C263.879 223.222 264.37 218.608 264.94 214.05C265.019 213.418 265.099 212.787 265.18 212.157C265.682 208.223 266.18 204.325 266.288 200.336C266.423 195.342 267.459 190.349 268.472 185.465C268.51 185.284 268.547 185.104 268.585 184.923C269.64 179.832 270.635 174.858 270.635 169.932C270.635 169.379 271.082 168.932 271.635 168.932ZM247.086 362.726C247.086 362.726 247.085 362.721 247.086 362.713C247.086 362.722 247.086 362.726 247.086 362.726ZM247.348 362.263C247.35 362.262 247.351 362.262 247.351 362.262C247.351 362.262 247.35 362.262 247.348 362.263Z" fill="black"/>
<path fill-rule="evenodd" clip-rule="evenodd" d="M347.909 181.735C347.777 181.854 347.639 181.978 347.496 182.107C346.017 183.438 344.394 184.582 342.829 185.686C342.746 185.744 342.664 185.803 342.581 185.861C340.923 187.032 339.336 188.168 337.934 189.496C330.912 196.149 322.614 202.201 314.797 207.702C311.789 209.819 308.929 212.266 306.014 214.761C305.222 215.438 304.427 216.118 303.624 216.797C299.886 219.953 295.996 223.038 291.663 225.319C289.628 226.39 285.136 229.63 281.058 233.224C279.027 235.013 277.132 236.862 275.716 238.539C275.008 239.378 274.434 240.158 274.025 240.852C273.608 241.559 273.401 242.112 273.351 242.511C273.283 243.059 272.783 243.448 272.235 243.379C271.687 243.311 271.298 242.811 271.367 242.263C271.465 241.474 271.825 240.646 272.302 239.836C272.787 239.013 273.436 238.14 274.187 237.25C275.691 235.468 277.666 233.547 279.736 231.723C283.859 228.091 288.489 224.729 290.732 223.549C294.86 221.376 298.611 218.412 302.333 215.269C303.113 214.611 303.892 213.944 304.673 213.275C307.598 210.772 310.553 208.243 313.646 206.066C321.459 200.569 329.652 194.588 336.559 188.044C338.08 186.603 339.78 185.39 341.428 184.227C341.501 184.175 341.574 184.124 341.647 184.072C342.948 183.155 344.212 182.263 345.389 181.285C345.128 180.816 345.285 180.221 345.749 179.943C345.876 179.866 345.999 179.792 346.118 179.721C346.87 179.269 347.457 178.917 347.873 178.677C348.111 178.541 348.317 178.426 348.477 178.349C348.55 178.314 348.654 178.266 348.764 178.233C348.813 178.218 348.922 178.187 349.058 178.181C349.144 178.178 349.566 178.167 349.882 178.539C350.224 178.941 350.112 179.386 350.079 179.497C350.034 179.643 349.967 179.749 349.938 179.793C349.873 179.892 349.795 179.98 349.741 180.038C349.623 180.166 349.457 180.327 349.262 180.508C348.941 180.807 348.484 181.218 347.909 181.735Z" fill="black"/>
</svg>
