<svg width="410" height="465" viewBox="0 0 410 465" fill="none" xmlns="http://www.w3.org/2000/svg">
<path fill-rule="evenodd" clip-rule="evenodd" d="M20.7484 12.8257C20.708 13.3013 20.4771 13.8732 20.1692 14.489C19.6905 15.4463 19.427 16.4814 19.2202 17.6081C19.1478 18.0028 19.0794 18.431 19.0088 18.8728C18.8892 19.6217 18.7633 20.4099 18.6006 21.1419C17.4497 26.3208 17.2155 31.3324 17.2155 36.8651C17.2155 39.2668 17.7296 41.6905 18.2759 44.266L18.2806 44.2884C18.8207 46.8348 19.3892 49.5242 19.3892 52.2819C19.3892 53.6415 19.2029 54.9576 19.0261 56.2059L19.0171 56.27C18.8347 57.5584 18.6647 58.7827 18.6647 60.0507C18.6647 61.0113 18.9057 61.9065 19.1822 62.9336C19.2487 63.1807 19.3173 63.4355 19.3851 63.7006C19.7178 65.0021 20.0035 66.4966 19.506 68.1136C18.7187 70.6721 18.497 73.7312 18.4836 76.9037C18.477 78.4834 18.5217 80.0713 18.5686 81.6235C18.5718 81.7292 18.575 81.8347 18.5782 81.9401C18.6219 83.3761 18.6647 84.7821 18.6647 86.0942C18.6647 89.9228 18.8445 93.7157 19.0258 97.5214L19.0284 97.5755C19.2085 101.356 19.3892 105.149 19.3892 108.958C19.3892 118.454 18.2999 127.865 17.2168 137.222L17.2089 137.29C16.121 146.689 15.0419 156.035 15.0419 165.473C15.0419 176.348 13.4018 187.054 11.7753 197.672L11.7699 197.707C10.1377 208.362 8.52095 218.928 8.52095 229.636C8.52095 236.467 8.33945 243.308 8.1584 250.132L8.15833 250.134C7.97713 256.964 7.79641 263.777 7.79641 270.573C7.79641 276.156 8.06086 281.867 8.32774 287.632C8.41389 289.492 8.50029 291.358 8.57812 293.227C8.89629 300.867 9.06988 308.532 8.47751 315.937C6.30797 343.056 4.89819 369.729 4.89819 396.845C4.89819 397.512 4.92547 398.936 4.96327 400.911C5.07207 406.592 5.26802 416.825 5.15167 426.625C5.0731 433.242 4.85244 439.724 4.36325 444.563C4.11949 446.974 3.8045 449.027 3.3907 450.496C3.1859 451.224 2.93858 451.877 2.62193 452.37C2.322 452.836 1.80002 453.394 1 453.394C0.447715 453.394 0 452.947 0 452.394C0 451.891 0.371683 451.475 0.855488 451.405C0.875913 451.381 0.904107 451.343 0.939631 451.288C1.09775 451.042 1.28071 450.611 1.46554 449.954C1.831 448.656 2.13261 446.743 2.37339 444.362C2.85327 439.615 3.07339 433.206 3.15181 426.601C3.26767 416.843 3.07502 406.791 2.96565 401.084C2.92661 399.047 2.89819 397.564 2.89819 396.845C2.89819 369.66 4.31157 342.931 6.48388 315.777C7.06602 308.5 6.89746 300.936 6.57986 293.31C6.50292 291.463 6.41715 289.611 6.33138 287.759C6.06393 281.983 5.79641 276.206 5.79641 270.573C5.79641 263.749 5.97777 256.913 6.15875 250.092L6.15903 250.081C6.34022 243.252 6.52095 236.437 6.52095 229.636C6.52095 218.764 8.16065 208.06 9.78701 197.443L9.79295 197.405C11.4251 186.75 13.0419 176.182 13.0419 165.473C13.0419 155.9 14.1364 146.44 15.2222 137.06L15.2235 137.049C16.311 127.653 17.3892 118.338 17.3892 108.958C17.3892 105.197 17.2104 101.443 17.0295 97.6474L17.0281 97.6166C16.8471 93.8181 16.6647 89.9781 16.6647 86.0942C16.6647 84.814 16.6228 83.4374 16.5789 81.9929C16.5758 81.8903 16.5727 81.7873 16.5696 81.684C16.5226 80.1333 16.4768 78.5136 16.4837 76.8953C16.4972 73.6718 16.7182 70.3731 17.5944 67.5254C17.9204 66.4659 17.7633 65.4319 17.4474 64.196C17.3948 63.9901 17.3364 63.7754 17.276 63.5531C16.993 62.5117 16.6647 61.3032 16.6647 60.0507C16.6647 58.6206 16.8569 57.261 17.0368 55.9897L17.0369 55.9892C17.2197 54.6971 17.3892 53.4998 17.3892 52.2819C17.3892 49.7676 16.8709 47.281 16.3241 44.7033L16.2978 44.579C15.7669 42.0769 15.2155 39.478 15.2155 36.8651C15.2155 31.2827 15.45 26.0998 16.6482 20.7081C16.8022 20.0153 16.9064 19.3569 17.0156 18.6671C17.0875 18.2135 17.1614 17.7464 17.2531 17.247C17.4345 16.2587 17.674 15.2334 18.0919 14.2267C18.0404 14.2633 17.988 14.3009 17.9348 14.3394C17.1781 14.8866 16.3212 15.5645 15.4773 16.2321C15.303 16.3699 15.1293 16.5073 14.9572 16.6431C13.987 17.408 13.0181 18.1593 12.3644 18.5328C11.8849 18.8068 11.274 18.6402 11 18.1607C10.726 17.6812 10.8926 17.0703 11.3721 16.7963C11.8669 16.5135 12.7034 15.8731 13.7189 15.0725C13.8843 14.9421 14.0533 14.8084 14.2246 14.6729C15.0682 14.0054 15.9675 13.2939 16.7628 12.7188C17.2413 12.3727 17.7063 12.0582 18.1172 11.8253C18.3226 11.7088 18.5322 11.6026 18.7357 11.5225C18.9262 11.4475 19.1784 11.3681 19.4507 11.3626C19.7399 11.3567 20.1754 11.4394 20.4837 11.8347C20.7582 12.1867 20.7686 12.5874 20.7484 12.8257ZM0.816155 451.444C0.816121 451.444 0.819255 451.441 0.82566 451.437C0.819391 451.443 0.816189 451.445 0.816155 451.444Z" fill="black"/>
<path fill-rule="evenodd" clip-rule="evenodd" d="M155.611 2.36191C148.91 2.54299 142.175 2.72455 135.444 2.72455C129.813 2.72455 124.258 3.20281 118.683 3.71597C118.286 3.75251 117.889 3.78922 117.492 3.82596C112.323 4.3039 107.129 4.78419 101.895 4.89796C93.628 5.07768 85.4269 6.03769 77.1878 7.0993C76.0568 7.24503 74.9248 7.39272 73.7918 7.54054C66.6865 8.46754 59.5424 9.39961 52.3496 9.88725C51.7756 9.92617 50.3277 9.94767 48.387 9.97649C47.7148 9.98647 46.9834 9.99733 46.2088 10.0101C43.1672 10.0602 39.3969 10.1399 35.7222 10.3083C32.0396 10.477 28.4856 10.7334 25.865 11.1319C24.546 11.3324 23.5196 11.561 22.8441 11.8102C22.5411 11.922 22.3594 12.02 22.2631 12.0881C22.1629 12.5346 21.7641 12.8682 21.2874 12.8682C20.7351 12.8682 20.2874 12.4205 20.2874 11.8682C20.2874 11.2524 20.6495 10.8175 20.9763 10.5547C21.3041 10.2911 21.7219 10.0925 22.1518 9.9339C23.0212 9.61308 24.2086 9.36073 25.5644 9.15459C28.2936 8.73965 31.9341 8.47974 35.6307 8.31039C39.3353 8.14067 43.129 8.06058 46.1759 8.01037C46.9956 7.99686 47.7571 7.98552 48.4465 7.97526C50.3453 7.947 51.6973 7.92688 52.2143 7.89183C59.3401 7.40873 66.4162 6.48566 73.5253 5.55831C74.66 5.41029 75.7955 5.26216 76.9322 5.11569C85.1757 4.05352 93.4689 3.08067 101.852 2.89843C107.011 2.78626 112.138 2.31232 117.321 1.83315C117.714 1.79688 118.107 1.76057 118.5 1.72439C124.072 1.21152 129.71 0.724547 135.444 0.724547C142.144 0.724547 148.852 0.543834 155.557 0.362638L155.618 0.360998C162.298 0.180472 168.977 0 175.616 0C184.366 0 192.975 0.363301 201.555 0.725438L201.559 0.725603C210.145 1.08796 218.701 1.4491 227.381 1.4491C234.329 1.4491 241.228 1.81299 248.073 2.17504L248.13 2.17804C254.965 2.53955 261.746 2.8982 268.52 2.8982H321.251C323.168 2.8982 325.252 2.76017 327.45 2.61458C328.965 2.51416 330.535 2.41014 332.143 2.34532C335.987 2.19033 339.935 2.27141 343.245 3.30599C346.219 4.2353 349.866 4.33528 353.681 4.18048C355.157 4.12062 356.678 4.02059 358.182 3.92164C360.474 3.77094 362.727 3.62275 364.724 3.62275H381.751C383.951 3.62275 387.245 3.68383 390.498 3.96941C393.713 4.25162 397.027 4.7628 399.184 5.72157C399.908 6.04337 401.146 6.32147 402.536 6.4599C403.916 6.59728 405.324 6.58514 406.365 6.39501C406.892 6.29874 407.252 6.1694 407.46 6.04318C407.518 6.00775 407.553 5.98004 407.574 5.96099C407.555 5.89729 407.491 5.74388 407.272 5.48663C406.948 5.10665 406.38 4.61359 405.469 4.00571C405.009 3.69936 404.885 3.07849 405.191 2.61896C405.497 2.15943 406.118 2.03524 406.578 2.34159C407.563 2.99858 408.301 3.61043 408.794 4.18961C409.273 4.752 409.633 5.41567 409.577 6.14298C409.516 6.92129 409.011 7.44087 408.497 7.75283C407.992 8.05965 407.361 8.24605 406.724 8.36243C405.437 8.5976 403.828 8.59838 402.338 8.45006C400.86 8.3028 399.378 7.99659 398.372 7.54919C396.548 6.73866 393.533 6.24352 390.323 5.96175C387.151 5.68333 383.922 5.62275 381.751 5.62275H364.724C362.767 5.62275 360.655 5.76281 358.436 5.90999C356.923 6.01035 355.36 6.11402 353.763 6.17884C349.915 6.33493 345.973 6.25378 342.649 5.21495C339.689 4.29 336.037 4.18994 332.224 4.3437C330.74 4.40352 329.212 4.5039 327.704 4.60293C325.432 4.75208 323.207 4.8982 321.251 4.8982H268.52C261.693 4.8982 254.868 4.5372 248.05 4.17662L247.968 4.17225C241.114 3.80976 234.267 3.4491 227.381 3.4491C218.659 3.4491 210.067 3.08648 201.495 2.72468L201.471 2.72366C192.884 2.36125 184.317 2 175.616 2C169.004 2 162.348 2.17986 155.658 2.36063L155.611 2.36191ZM407.6 5.93072C407.601 5.93082 407.599 5.93423 407.594 5.94075C407.597 5.9339 407.6 5.93062 407.6 5.93072Z" fill="black"/>
<path fill-rule="evenodd" clip-rule="evenodd" d="M269.083 5.07178C269.636 5.07178 270.083 5.51949 270.083 6.07178C270.083 13.3361 269.539 20.7691 268.997 28.1681L268.994 28.2157C268.45 35.644 267.91 43.0381 267.91 50.2693C267.91 54.2286 267.078 57.9347 266.223 61.4944C266.159 61.7617 266.095 62.0281 266.031 62.2936C265.234 65.5963 264.468 68.7721 264.285 72.0613C264.21 73.4213 264.086 74.789 263.964 76.1468C263.924 76.5853 263.885 77.0228 263.847 77.4586C263.691 79.2568 263.562 81.0497 263.562 82.874C263.562 84.0294 263.561 85.0615 263.498 85.8791C263.467 86.2899 263.418 86.6795 263.335 87.0236C263.256 87.3559 263.127 87.7253 262.888 88.0341C262.621 88.3788 262.23 88.6253 261.739 88.6621C261.301 88.6949 260.896 88.5516 260.563 88.3801C259.904 88.0411 259.135 87.3815 258.233 86.4793C257.842 86.0888 257.842 85.4557 258.233 85.0651C258.623 84.6746 259.256 84.6746 259.647 85.0651C260.471 85.8891 261.029 86.3442 261.391 86.5543C261.438 86.3558 261.477 86.0844 261.504 85.7262C261.56 85.0014 261.562 84.0545 261.562 82.874C261.562 80.9608 261.697 79.0982 261.854 77.286C261.894 76.8336 261.934 76.3856 261.974 75.941C262.096 74.5918 262.215 73.2726 262.289 71.9503C262.482 68.4708 263.29 65.123 264.079 61.8547C264.146 61.5784 264.213 61.3028 264.279 61.0276C265.134 57.465 265.91 53.9665 265.91 50.2693C265.91 42.9524 266.456 35.4847 266.999 28.0697L267 28.0607C267.544 20.6352 268.083 13.2629 268.083 6.07178C268.083 5.51949 268.531 5.07178 269.083 5.07178Z" fill="black"/>
<path fill-rule="evenodd" clip-rule="evenodd" d="M275.359 71.039C275.493 70.5032 276.036 70.1774 276.571 70.3113C277.425 70.5246 278.148 70.6562 278.705 70.7511C278.793 70.7661 278.88 70.7807 278.964 70.7948C279.136 70.8237 279.295 70.8503 279.426 70.8743C279.593 70.9049 279.832 70.9502 280.021 71.0268C280.077 71.0494 280.16 71.0871 280.249 71.1468C280.331 71.2014 280.483 71.3176 280.595 71.5212C280.726 71.7609 280.762 72.0507 280.675 72.3275C280.602 72.5637 280.463 72.7139 280.386 72.7864C280.239 72.9251 280.075 73.0022 280.003 73.0348C279.908 73.0781 279.805 73.1169 279.704 73.1516C279.392 73.2597 278.89 73.4025 278.218 73.5937C278.064 73.6373 277.902 73.6835 277.731 73.7324C276.886 73.9737 275.991 74.4569 275.024 75.0542C274.712 75.2468 274.385 75.4567 274.051 75.6707C273.405 76.0854 272.734 76.5155 272.105 76.8652C270.013 78.0273 268.349 79.2673 267.208 81.2076C267.021 81.5263 266.783 82.086 266.519 82.7852C266.333 83.2757 266.15 83.7932 265.973 84.2915C265.903 84.4894 265.834 84.6843 265.766 84.8733C265.545 85.4918 265.312 86.1241 265.119 86.4741C265.073 86.5566 264.984 86.7105 264.849 86.8445C264.784 86.9087 264.633 87.0444 264.399 87.1162C264.106 87.2056 263.764 87.168 263.481 86.9608C263.255 86.7949 263.157 86.5842 263.119 86.4882C263.074 86.3768 263.052 86.274 263.041 86.2035C263.017 86.061 263.011 85.9096 263.011 85.7725C263.011 85.3482 263.276 84.9857 263.648 84.8404C263.718 84.6575 263.796 84.4429 263.884 84.1988C263.946 84.0232 264.013 83.8367 264.081 83.6437C264.26 83.1386 264.455 82.5894 264.648 82.078C264.91 81.385 265.2 80.677 265.484 80.1936C266.89 77.8041 268.915 76.3496 271.134 75.1169C271.713 74.7949 272.282 74.4293 272.888 74.0399C273.235 73.8173 273.593 73.587 273.973 73.3526C274.622 72.9519 275.312 72.553 276.027 72.235C275.527 72.0772 275.23 71.5548 275.359 71.039ZM279.174 71.215C279.173 71.2154 279.172 71.2159 279.17 71.2165C279.183 71.2096 279.186 71.2094 279.174 71.215ZM263.357 85.5256C263.357 85.5254 263.359 85.5223 263.363 85.5169C263.359 85.5231 263.357 85.5258 263.357 85.5256Z" fill="black"/>
<path fill-rule="evenodd" clip-rule="evenodd" d="M274.433 65.3148C274.926 65.0678 275.527 65.268 275.774 65.762C276.048 66.3096 275.908 66.8468 275.65 67.218C275.43 67.5363 275.109 67.7684 274.834 67.9351C274.266 68.2797 273.482 68.5851 272.718 68.8495C272.126 69.0543 271.492 69.2523 270.91 69.4339C270.728 69.4908 270.55 69.5461 270.381 69.5995C269.633 69.8359 269.088 70.0218 268.806 70.1628C265.923 71.6041 263.497 73.9342 261.096 76.3355C260.705 76.726 260.072 76.726 259.682 76.3354C259.291 75.9449 259.291 75.3117 259.682 74.9212C262.064 72.5393 264.7 69.9798 267.912 68.374C268.364 68.1477 269.075 67.9146 269.779 67.6924C269.962 67.6347 270.148 67.5765 270.336 67.5179C270.912 67.3381 271.504 67.1533 272.064 66.9595C272.82 66.6979 273.427 66.4499 273.797 66.2253C273.829 66.2059 273.856 66.1881 273.88 66.1722C273.894 65.8191 274.094 65.4839 274.433 65.3148Z" fill="black"/>
<path fill-rule="evenodd" clip-rule="evenodd" d="M275.837 58.956C274.948 59.2604 274.238 59.5172 273.878 59.697C272.939 60.1665 271.989 60.9701 270.92 61.8747C270.659 62.0954 270.392 62.3221 270.115 62.5514C268.815 63.6293 267.261 64.8182 265.585 65.0278C265.037 65.0963 264.537 64.7075 264.468 64.1595C264.4 63.6115 264.789 63.1117 265.337 63.0432C266.349 62.9166 267.477 62.1406 268.838 61.0118C269.066 60.8234 269.3 60.6248 269.539 60.4216C270.618 59.5059 271.807 58.4966 272.983 57.9082C273.489 57.6556 274.342 57.3539 275.189 57.0639C275.411 56.9878 275.636 56.9113 275.861 56.8351C276.438 56.6394 277.01 56.445 277.521 56.2597C277.509 56.1969 277.502 56.1319 277.502 56.0654C277.502 55.5131 277.95 55.0654 278.502 55.0654C278.998 55.0654 279.452 55.0903 279.784 55.1893C279.903 55.2247 280.306 55.349 280.534 55.7559C280.852 56.3256 280.55 56.8277 280.408 57.0024C280.263 57.1814 280.082 57.3037 279.965 57.376C279.831 57.4592 279.681 57.5368 279.529 57.608C279.226 57.7509 278.853 57.8996 278.457 58.0469C277.859 58.269 277.156 58.5078 276.48 58.737C276.261 58.8113 276.045 58.8846 275.837 58.956ZM278.94 55.6568C278.941 55.6568 278.939 55.6583 278.935 55.6612C278.938 55.6582 278.94 55.6568 278.94 55.6568Z" fill="black"/>
<path fill-rule="evenodd" clip-rule="evenodd" d="M276.015 50.5039C275.207 50.783 274.278 51.1037 273.554 51.5058C273.175 51.7166 272.701 52.1339 272.128 52.7354C271.718 53.1666 271.303 53.6427 270.868 54.1404C270.705 54.3276 270.539 54.5179 270.369 54.71C269.767 55.3924 269.127 56.0917 268.491 56.6397C267.882 57.164 267.134 57.6796 266.309 57.7826C265.761 57.8511 265.261 57.4624 265.193 56.9144C265.124 56.3664 265.513 55.8666 266.061 55.7981C266.268 55.7722 266.636 55.5981 267.186 55.1244C267.708 54.6743 268.269 54.0672 268.869 53.3868C269.022 53.214 269.178 53.0357 269.335 52.8553C269.779 52.3467 270.237 51.8216 270.679 51.3569C271.271 50.7354 271.92 50.1257 272.583 49.7575C273.185 49.4228 273.931 49.1244 274.606 48.8782C274.605 48.859 274.604 48.8397 274.604 48.8203C274.604 48.268 275.052 47.8203 275.604 47.8203C276.058 47.8203 276.42 47.83 276.691 47.8528C276.825 47.8642 276.962 47.8806 277.089 47.9079C277.173 47.9261 277.417 47.9793 277.635 48.1524C277.764 48.2543 277.949 48.4508 278.014 48.7619C278.081 49.0816 277.984 49.3467 277.89 49.5069C277.741 49.7621 277.516 49.8968 277.451 49.9353L277.449 49.937C277.265 50.0472 277.026 50.1418 276.828 50.216C276.583 50.3078 276.307 50.4031 276.015 50.5039Z" fill="black"/>
<path fill-rule="evenodd" clip-rule="evenodd" d="M275.288 37.7274C275.812 37.5527 276.378 37.8359 276.553 38.3598C276.671 38.7142 276.636 39.0569 276.57 39.3218C276.502 39.5908 276.385 39.8496 276.252 40.0859C275.988 40.5578 275.594 41.0653 275.139 41.5733C274.224 42.5968 272.942 43.7565 271.586 44.8412C270.227 45.9281 268.761 46.965 267.463 47.7361C266.815 48.1211 266.192 48.4498 265.634 48.6854C265.105 48.9091 264.529 49.0952 264.011 49.0952C263.459 49.0952 263.011 48.6475 263.011 48.0952C263.011 47.5429 263.459 47.0952 264.011 47.0952C264.113 47.0952 264.383 47.0431 264.856 46.8431C265.301 46.6549 265.839 46.3742 266.441 46.0167C267.643 45.3027 269.033 44.3221 270.337 43.2792C271.644 42.2338 272.834 41.1512 273.649 40.24C274.06 39.7806 274.345 39.3976 274.507 39.1086C274.573 38.9919 274.606 38.9111 274.622 38.8632C274.529 38.3784 274.807 37.8878 275.288 37.7274ZM274.633 38.8216C274.633 38.8216 274.633 38.8229 274.632 38.8254C274.633 38.823 274.633 38.8217 274.633 38.8216Z" fill="black"/>
<path fill-rule="evenodd" clip-rule="evenodd" d="M274.984 30.7162C274.5 31.0874 273.83 31.6416 273.011 32.4603C272.57 32.9008 271.018 34.4216 269.39 35.8594C268.578 36.5769 267.732 37.2876 266.989 37.8353C266.618 38.1084 266.256 38.3534 265.926 38.5404C265.624 38.7113 265.243 38.8965 264.86 38.9444C264.312 39.0129 263.812 38.6242 263.744 38.0762C263.675 37.5281 264.064 37.0283 264.612 36.9598C264.605 36.9607 264.606 36.9604 264.615 36.957C264.643 36.947 264.746 36.9106 264.941 36.8001C265.174 36.6677 265.465 36.4739 265.803 36.2251C266.476 35.7288 267.272 35.0627 268.066 34.3607C269.652 32.9593 271.173 31.4694 271.597 31.0461C271.902 30.7412 272.189 30.469 272.456 30.226C272.025 30.1151 271.706 29.7235 271.706 29.2575C271.706 28.7052 272.154 28.2575 272.706 28.2575C273.641 28.2575 274.289 28.2066 274.704 28.174C274.72 28.1728 274.735 28.1716 274.75 28.1704C274.762 28.1695 274.775 28.1684 274.788 28.1674C274.949 28.1546 275.17 28.137 275.335 28.1502C275.387 28.1545 275.493 28.1654 275.614 28.2053C275.713 28.2381 275.998 28.3465 276.184 28.6621C276.402 29.0321 276.322 29.3939 276.246 29.5777C276.177 29.7426 276.081 29.8531 276.041 29.8968C275.954 29.993 275.854 30.071 275.802 30.1116C275.736 30.1619 275.659 30.218 275.583 30.2732C275.567 30.2846 275.551 30.2962 275.535 30.3082C275.385 30.4165 275.203 30.5479 274.984 30.7162ZM274.603 28.5093C274.605 28.5082 274.605 28.5077 274.605 28.5077C274.605 28.5077 274.605 28.5082 274.603 28.5093Z" fill="black"/>
<path fill-rule="evenodd" clip-rule="evenodd" d="M275.383 22.3304C274.078 23.2918 272.167 24.66 271.665 25.0077C268.061 27.5032 265.388 29.667 262.585 32.8199C262.218 33.2327 261.586 33.2699 261.174 32.903C260.761 32.5361 260.724 31.904 261.09 31.4912C264.033 28.1807 266.842 25.9145 270.527 23.3633C270.979 23.0506 272.68 21.8328 273.96 20.8944C274.034 20.7215 274.157 20.5673 274.325 20.4552C274.803 20.1363 275.132 19.9227 275.332 19.7997C275.412 19.7507 275.53 19.6792 275.634 19.6338L275.635 19.6331C275.658 19.6232 275.745 19.5847 275.86 19.5624C275.905 19.5535 276.071 19.5215 276.277 19.5683C276.392 19.5944 276.561 19.6543 276.72 19.7951C276.89 19.9457 276.994 20.14 277.036 20.3366C277.106 20.6667 276.988 20.919 276.963 20.9724L276.962 20.9732C276.921 21.0617 276.875 21.1249 276.854 21.1529C276.809 21.213 276.766 21.257 276.749 21.2747C276.639 21.3843 276.422 21.5522 276.229 21.6997C276.003 21.8715 275.71 22.0896 275.383 22.3304Z" fill="black"/>
<path fill-rule="evenodd" clip-rule="evenodd" d="M273.784 14.4727C273.464 14.6405 273.121 14.8199 272.774 15.0047C272.62 15.0867 272.144 15.4018 271.457 15.8938C270.795 16.3687 269.991 16.9691 269.212 17.5837C268.429 18.201 267.687 18.8203 267.14 19.3349C266.865 19.5941 266.659 19.8089 266.525 19.9718C266.475 20.0318 266.444 20.0753 266.425 20.1034C266.296 20.5753 265.836 20.8929 265.337 20.8305C264.788 20.762 264.4 20.2622 264.468 19.7142C264.501 19.4554 264.609 19.2438 264.685 19.1141C264.771 18.969 264.875 18.8292 264.98 18.701C265.192 18.4442 265.467 18.1634 265.769 17.8788C266.378 17.306 267.172 16.6455 267.973 16.0134C268.778 15.3786 269.607 14.7598 270.292 14.2684C270.954 13.7941 271.541 13.3958 271.833 13.24C272.214 13.0368 272.556 12.8578 272.868 12.695C272.604 12.5149 272.431 12.2118 272.431 11.8682C272.431 11.3159 272.878 10.8682 273.431 10.8682C274.31 10.8682 275.014 10.8992 275.466 11.0177C275.59 11.05 275.745 11.1009 275.897 11.1891C276.045 11.2752 276.27 11.4433 276.399 11.7427C276.696 12.4276 276.218 12.9512 276.115 13.0594C275.942 13.2399 275.718 13.3945 275.522 13.5189C275.311 13.6526 275.059 13.7948 274.786 13.9431C274.502 14.0973 274.158 14.2771 273.784 14.4727ZM266.403 20.1389C266.403 20.1389 266.405 20.1361 266.408 20.1304C266.405 20.1359 266.404 20.1388 266.403 20.1389ZM274.968 12.9546C274.97 12.9554 274.971 12.9558 274.971 12.9558C274.971 12.9558 274.97 12.9555 274.968 12.9546Z" fill="black"/>
<path fill-rule="evenodd" clip-rule="evenodd" d="M277.427 6.48345C277.516 6.90695 277.606 7.48907 277.699 8.23325C277.767 8.78127 277.379 9.28106 276.831 9.34957C276.786 9.35509 276.743 9.35764 276.699 9.35738C276.582 11.3358 276.495 14.105 276.431 17.2801C276.257 25.9048 276.257 37.3306 276.257 43.3921L276.257 43.8602C276.257 47.1514 276.074 50.4314 275.894 53.6392L275.887 53.749C275.708 56.9284 275.533 60.0335 275.533 63.0608C275.533 64.1005 275.552 65.1658 275.572 66.2435C275.612 68.4466 275.653 70.7018 275.531 72.8977C275.485 73.7314 275.318 74.5371 275.167 75.2706C275.149 75.3548 275.132 75.4381 275.115 75.5203C274.947 76.345 274.808 77.1074 274.808 77.914C274.808 78.5217 274.848 78.9383 274.885 79.2081C274.903 79.3441 274.922 79.4475 274.937 79.5341L274.938 79.5403C274.945 79.5788 274.953 79.6276 274.96 79.6711L274.96 79.6734C274.965 79.7068 274.98 79.8062 274.976 79.9183C274.974 79.9748 274.966 80.1047 274.909 80.2556C274.847 80.4224 274.7 80.6702 274.396 80.8147C274.112 80.9501 273.853 80.9159 273.726 80.8863C273.598 80.8565 273.504 80.8084 273.461 80.7856C273.379 80.7412 273.31 80.69 273.286 80.6723L273.284 80.6707C273.264 80.6563 273.237 80.6357 273.215 80.619C273.206 80.6118 273.197 80.6054 273.191 80.6005C273.086 80.521 272.917 80.3979 272.637 80.2576C272.143 80.0106 271.942 79.4099 272.189 78.9159C272.321 78.6526 272.553 78.4727 272.816 78.3996C272.811 78.2492 272.808 78.0875 272.808 77.914C272.808 76.8882 272.985 75.9535 273.156 75.1198C273.173 75.0373 273.189 74.9561 273.206 74.8759C273.361 74.1208 273.497 73.4632 273.534 72.7867C273.652 70.6617 273.613 68.5393 273.573 66.3821C273.553 65.2856 273.533 64.1802 273.533 63.0608C273.533 59.9767 273.711 56.8234 273.889 53.6637L273.897 53.5266C274.078 50.311 274.257 47.0862 274.257 43.8602L274.257 43.3862C274.257 37.3277 274.257 25.8852 274.431 17.2398C274.52 12.8179 274.656 9.07623 274.866 7.171C274.918 6.70289 274.98 6.28512 275.064 5.98524C275.096 5.87072 275.171 5.6122 275.35 5.39578C275.447 5.27829 275.68 5.04653 276.066 5.00596C276.478 4.96269 276.771 5.1646 276.912 5.29848C277.142 5.51734 277.24 5.80472 277.278 5.91462C277.334 6.07949 277.383 6.2736 277.427 6.48345ZM272.981 79.964C272.983 79.9744 272.982 79.9726 272.981 79.9618C272.981 79.9626 272.981 79.9633 272.981 79.964ZM276.997 6.50154C277.001 6.4893 277.003 6.484 277.003 6.48441C277.003 6.48482 277.001 6.49094 276.997 6.50154ZM275.369 6.52082C275.37 6.52018 275.373 6.52708 275.379 6.54346C275.372 6.52965 275.369 6.52147 275.369 6.52082Z" fill="black"/>
</svg>
