<svg width="689" height="342" viewBox="0 0 689 342" fill="none" xmlns="http://www.w3.org/2000/svg">
<path d="M259.061 28.2728C259.042 28.4224 227.054 22.3517 223.64 22.2123C196.984 21.1243 168.992 17.2425 142.63 13.7274C122.249 11.01 101.636 8.71838 81.4175 14.9395C65.5562 19.82 52.396 29.511 37.3097 35.5456C28.2305 39.1773 20.2824 56.0491 15.4242 64.0305C8.60066 75.2405 3.65692 91.5412 3.30298 104.636C2.88992 119.919 2.09082 134.748 2.09082 150.091C2.09082 163.436 3.30298 176.469 3.30298 189.754C3.30298 207.256 5.72718 224.973 5.72718 242.886C5.72718 252.737 6.93934 262.474 6.93934 272.179C6.93934 278.537 5.52142 286.598 8.15148 292.515C10.0289 296.74 12.634 300.97 14.2121 305.31C17.5072 314.371 28.801 320.041 36.2323 325.243C58.0093 340.486 92.879 333.921 117.242 333.727C185.869 333.183 254.192 340.423 322.764 339.788C386.343 339.199 449.89 338.576 513.539 338.576C554.998 338.576 596.676 339.042 630.508 311.977C663.93 285.239 675.815 244.365 683.572 204.03C688.401 178.923 689.162 152.652 681.148 128.61C674.818 109.619 670.845 89.186 655.424 75.4783C649.367 70.0938 645.694 63.46 638.455 59.182C629.427 53.8476 618.819 49.3294 608.825 46.1853C582.644 37.9488 556.087 32.9564 529.229 27.7341C488.717 19.8569 446.378 21.984 405.727 15.2089C387.691 12.2029 369.346 10.0187 351.114 8.94627C341.401 8.37487 331.746 8.56935 322.091 7.06075C318.116 6.43973 303.174 8.40187 309.97 1.6062" stroke="black" stroke-width="3" stroke-linecap="round"/>
</svg>
