<svg width="86" height="87" viewBox="0 0 86 87" fill="none" xmlns="http://www.w3.org/2000/svg">
<path d="M29.7113 8.16162C29.1976 8.29674 28.6087 8.56697 28.3957 8.76965C28.1953 8.97232 27.7818 9.20878 27.4936 9.27634C27.2055 9.3439 26.8797 9.58035 26.7795 9.81681C26.5414 10.3573 25.1006 11.2355 25.0129 10.864C24.9878 10.7288 24.637 10.7626 24.2361 10.8977C23.2087 11.2693 18.999 11.4044 18.2472 11.1004C17.9089 10.9315 16.9442 10.8302 16.1173 10.8302C15.2904 10.8302 14.4133 10.6951 14.1502 10.5262C12.5966 9.37767 10.5669 9.20877 9.86532 10.1546C9.57715 10.5262 9.15117 10.8977 8.90059 11.0329C8.52471 11.168 8.42448 11.4044 8.37437 12.1476C8.33678 12.7218 8.39942 13.3636 8.54977 13.9379C8.68759 14.4783 8.82541 15.7282 8.863 16.9105C8.91311 18.0927 9.01335 19.0048 9.11358 19.1061C9.21381 19.2074 9.27646 20.0519 9.28898 21.572C9.3391 27.9563 9.38922 29.679 9.52704 30.4222C9.62727 30.9289 9.66485 31.7396 9.60221 32.7192C9.55209 33.7325 9.57715 34.3743 9.67738 34.7459C9.86532 35.3202 9.85279 37.1105 9.66485 37.7185C9.60221 37.9549 9.57715 38.2252 9.61474 38.3265C9.77762 38.7656 9.53956 40.1506 9.21381 40.5897C8.75024 41.2991 8.3869 43.4947 8.48713 45.0824C8.53724 46.062 8.51219 46.5349 8.33678 47.0416C8.21149 47.4131 8.18643 47.6834 8.26161 47.6834C8.48713 47.6834 8.43701 49.879 8.22402 50.3857C8.11126 50.6222 8.07367 50.96 8.12379 51.0951C8.1739 51.2302 8.18643 52.5476 8.13632 54.0001C8.0862 55.4526 8.03608 57.3105 8.01103 58.155C7.97344 58.9994 8.03608 60.1817 8.13632 60.8573C8.24908 61.4991 8.31172 62.1747 8.29919 62.3436C8.28666 62.5125 8.31172 62.8841 8.36184 63.1881C8.49966 64.0663 8.54977 64.6406 8.61242 66.2282C8.65001 67.0727 8.72518 67.9172 8.80035 68.1536C8.88806 68.4239 8.863 68.9305 8.73771 69.7412C8.52471 71.1262 8.65 71.6667 9.17622 71.6667C9.36416 71.6667 9.53956 71.8356 9.56462 72.0045C9.58968 72.2409 10.0282 72.2747 10.9178 72.072C12.2082 71.8018 13.4611 72.0045 14.3006 72.6463C14.5386 72.8152 15.14 73.2881 15.6161 73.6934C16.1048 74.065 16.7187 74.4703 16.9943 74.5379C17.2574 74.6392 17.5957 74.9095 17.7461 75.1797C18.147 75.8553 18.5479 76.1255 19.6254 76.3958C21.7929 76.9362 23.1586 77.4429 23.6973 77.9158C24.0106 78.1861 24.6621 78.4563 25.1382 78.4901C25.8774 78.5239 26.1029 78.3887 26.579 77.6456C26.8922 77.1727 27.456 76.6322 27.8319 76.4633C28.8718 75.9566 34.4598 76.3958 35.5373 77.0714C35.8881 77.274 36.9405 77.4429 37.9178 77.3754C38.8825 77.3416 41.1503 77.3416 42.9419 77.3416C45.9865 77.4091 46.2621 77.4429 46.8259 78.1185C47.3772 78.7603 47.7155 78.8617 50.2588 78.963C52.4013 79.0643 53.3034 78.963 54.0175 78.5914C54.8445 78.1523 56.2853 77.9834 59.0291 78.051C59.4802 78.0847 60.3948 77.7807 61.0588 77.4091C61.7229 77.0376 62.6876 76.7336 63.2013 76.7336C64.379 76.7336 66.0579 75.8891 66.722 74.977C67.2231 74.2677 67.2983 74.2677 69.2403 74.6392C71.8839 75.1797 73.7006 74.6392 75.2166 72.8489C76.5447 71.2951 76.9832 70.3493 77.1712 68.6603C77.3841 66.7687 77.3716 62.3774 77.1461 60.3844C76.9957 59.1008 76.9832 58.155 77.0709 56.3309C77.1712 54.1014 77.1461 51.9733 76.9957 50.1493C76.9707 49.7439 76.8078 49.0345 76.6449 48.6292C76.4821 48.1901 76.3192 47.4807 76.2816 47.0078C76.1939 46.0282 76.5823 43.0218 77.2714 39.3399C77.6598 37.3131 77.7224 36.7051 77.6723 35.3877C77.6222 34.4081 77.6598 33.6312 77.7725 33.2258C77.9229 32.6178 78.0858 26.0646 77.948 26.0646C77.9104 26.0646 77.8728 25.7944 77.8602 25.4566C77.8352 24.781 77.7099 22.8894 77.6222 21.7409C77.5846 21.2004 77.4844 20.9977 77.2213 20.9977C76.6324 20.9977 76.3192 20.6262 76.3192 19.9168C76.3192 19.579 76.1814 18.7345 76.006 18.0589C75.7804 17.1131 75.7303 16.674 75.8305 16.2011C75.8932 15.8633 76.0185 15.5931 76.1062 15.5931C76.3818 15.5931 75.9057 14.9513 75.1916 14.377C74.3271 13.6676 72.8111 13.5325 72.8111 14.1743C72.8111 14.4446 72.7484 14.5121 72.6607 14.3432C72.4978 14.073 70.9317 13.9041 67.6115 13.769C65.8575 13.7014 64.8176 13.2961 64.2913 12.5529C64.166 12.384 63.8278 12.1814 63.5271 12.08C63.2264 12.0125 62.6375 11.6071 62.2366 11.2355C61.8231 10.8302 61.3846 10.5937 61.2593 10.7288C61.134 10.8302 61.0338 10.7626 61.0338 10.5937C61.0338 10.1546 60.1442 10.1546 59.9438 10.5599C59.8561 10.7964 59.7684 10.7626 59.7182 10.5599C59.6681 10.3235 59.5303 10.391 59.3048 10.7964C58.7911 11.7084 56.4983 12.2151 55.7716 11.6071C55.4584 11.3369 55.1577 10.9991 55.0825 10.864C55.0199 10.7288 54.5187 10.5262 53.9925 10.391C53.4537 10.2559 52.8022 9.95192 52.5517 9.71547C52.2885 9.47901 51.85 9.3439 51.5619 9.44523C51.211 9.51279 50.9855 9.41145 50.8602 9.03988C50.6974 8.63453 50.522 8.60075 49.8704 8.83721C49.4319 9.0061 47.966 9.24256 46.6254 9.3439C45.2848 9.47901 43.8816 9.61413 43.5057 9.68169C43.1424 9.74925 42.6913 9.64791 42.5034 9.51279C41.902 8.97232 40.8245 8.80343 37.1034 8.66831C33.8208 8.56697 32.6806 8.43186 31.0895 8.0265C30.8514 7.95895 30.225 8.0265 29.7113 8.16162Z" fill="white"/>
</svg>
