<svg width="761" height="171" viewBox="0 0 761 171" fill="none" xmlns="http://www.w3.org/2000/svg">
<path d="M239.07 8.35284C233.603 8.64782 227.336 9.23776 225.069 9.68022C222.935 10.1227 218.535 10.6389 215.468 10.7864C212.401 10.9339 208.934 11.4501 207.867 11.9663C205.334 13.1462 189.999 15.0635 189.066 14.2523C188.799 13.9573 185.065 14.0311 180.798 14.3261C169.864 15.1372 125.06 15.4322 117.06 14.7685C113.459 14.3998 103.192 14.1786 94.3912 14.1786C85.5905 14.1786 76.2564 13.8836 73.4561 13.5149C56.9214 11.0076 35.3196 10.6389 27.8523 12.7037C24.7854 13.5149 20.2517 14.3261 17.5848 14.621C13.5845 14.916 12.5177 15.4322 11.9843 17.0546C11.5843 18.3082 12.251 19.7093 13.8512 20.963C15.3179 22.1429 16.7847 24.8714 17.1848 27.4524C17.7181 30.0334 18.7849 32.0245 19.8517 32.2457C20.9184 32.467 21.5851 34.3105 21.7185 37.629C22.2519 51.5665 22.7852 55.3274 24.252 56.9498C25.3188 58.056 25.7188 59.8258 25.0521 61.9644C24.5187 64.1767 24.7854 65.5778 25.8522 66.389C27.8523 67.6426 27.719 71.551 25.7188 72.8784C25.0521 73.3946 24.7854 73.9845 25.1854 74.2058C26.9189 75.1644 24.3854 78.1879 20.9184 79.1466C15.9847 80.6952 12.1177 85.4885 13.1844 88.9545C13.7178 91.093 13.4511 92.1254 11.5843 93.2316C10.2509 94.0428 9.98417 94.6327 10.7842 94.6327C13.1844 94.6327 12.6511 99.4261 10.3842 100.532C9.1841 101.048 8.78407 101.786 9.31744 102.081C9.85082 102.376 9.98417 105.252 9.45079 108.423C8.91741 111.594 8.38403 115.65 8.11734 117.493C7.71731 119.337 8.38403 121.918 9.45079 123.393C10.6509 124.794 11.3176 126.269 11.1843 126.637C11.0509 127.006 11.3176 127.817 11.851 128.481C13.3178 130.398 13.8512 131.652 14.5179 135.118C14.9179 136.961 15.718 138.805 16.518 139.321C17.4515 139.911 17.1848 141.017 15.8513 142.787C13.5845 145.811 14.9179 146.991 20.5184 146.991C22.5185 146.991 24.3854 147.359 24.6521 147.728C24.9187 148.244 29.5858 148.318 39.0533 147.876C52.7877 147.286 66.1222 147.728 75.0563 149.129C77.5898 149.498 83.9903 150.53 89.0574 151.415C94.2579 152.226 100.792 153.111 103.725 153.259C106.526 153.48 110.126 154.07 111.726 154.66C115.993 156.135 120.26 156.725 131.728 157.315C154.796 158.495 169.331 159.601 175.065 160.633C178.398 161.223 185.332 161.813 190.399 161.887C198.267 161.961 200.667 161.666 205.734 160.043C209.067 159.011 215.068 157.831 219.068 157.462C230.136 156.356 289.607 157.315 301.075 158.79C304.809 159.232 316.01 159.601 326.411 159.453C336.678 159.38 360.813 159.38 379.882 159.38C412.284 159.527 415.218 159.601 421.218 161.076C427.086 162.477 430.686 162.698 457.755 162.919C480.557 163.14 490.158 162.919 497.758 162.108C506.559 161.149 521.894 160.781 551.096 160.928C555.896 161.002 565.631 160.338 572.698 159.527C579.765 158.716 590.033 158.052 595.5 158.052C608.034 158.052 625.902 156.209 632.969 154.217C638.303 152.669 639.103 152.669 659.772 153.48C687.907 154.66 707.242 153.48 723.377 149.572C737.512 146.179 742.179 144.115 744.179 140.427C746.446 136.298 746.312 126.711 743.912 122.36C742.312 119.558 742.179 117.493 743.112 113.511C744.179 108.644 743.912 103.998 742.312 100.016C742.045 99.1311 740.312 97.5825 738.578 96.6975C736.845 95.7389 735.111 94.1903 734.711 93.1579C733.778 91.0193 737.912 84.4561 745.245 76.4181C749.379 71.9935 750.046 70.6661 749.513 67.7901C748.979 65.6515 749.379 63.9554 750.579 63.0705C752.179 61.7431 753.913 47.4369 752.446 47.4369C752.046 47.4369 751.646 46.8469 751.513 46.1095C751.246 44.6346 749.913 40.505 748.979 37.9977C748.579 36.8178 747.512 36.3754 744.712 36.3754C738.445 36.3754 735.111 35.5642 735.111 34.0156C735.111 33.2781 733.645 31.4345 731.778 29.9597C729.377 27.8949 728.844 26.9362 729.911 25.9038C730.578 25.1664 731.911 24.5764 732.844 24.5764C735.778 24.5764 730.711 23.1753 723.11 21.9216C713.91 20.373 697.775 20.078 697.775 21.4792C697.775 22.0691 697.108 22.2166 696.175 21.8479C694.441 21.2579 677.773 20.8892 642.437 20.5943C623.769 20.4468 612.701 19.5618 607.101 17.9395C605.767 17.5708 602.167 17.1283 598.967 16.9071C595.766 16.7596 589.499 15.8747 585.232 15.0635C580.832 14.1786 576.165 13.6624 574.831 13.9573C573.498 14.1786 572.431 14.0311 572.431 13.6624C572.431 12.7037 562.964 12.7037 560.83 13.5886C559.897 14.1048 558.963 14.0311 558.43 13.5886C557.897 13.0724 556.43 13.2199 554.03 14.1048C548.562 16.0959 524.16 17.2021 516.426 15.8747C513.093 15.2847 509.893 14.5473 509.092 14.2523C508.426 13.9573 503.092 13.5149 497.491 13.2199C491.758 12.9249 484.824 12.2612 482.157 11.745C479.357 11.2288 474.69 10.9339 471.623 11.1551C467.889 11.3026 465.489 11.0814 464.155 10.2702C462.422 9.38525 460.555 9.31151 453.621 9.82771C448.954 10.1964 433.353 10.7126 419.085 10.9339C404.817 11.2288 389.883 11.5238 385.882 11.6713C382.015 11.8188 377.215 11.5976 375.215 11.3026C368.814 10.1227 357.346 9.75397 317.743 9.45899C282.807 9.23776 270.673 8.94279 253.738 8.05787C251.204 7.91038 244.537 8.05787 239.07 8.35284Z" fill="white"/>
</svg>
