<svg width="86" height="87" viewBox="0 0 86 87" fill="none" xmlns="http://www.w3.org/2000/svg">
<path d="M26.6738 0.198043C26.0427 0.36361 25.3193 0.694742 25.0576 0.943091C24.8113 1.19144 24.3034 1.48118 23.9493 1.56396C23.5953 1.64675 23.1951 1.93649 23.0719 2.22623C22.7795 2.88849 21.0093 3.96467 20.9016 3.50936C20.8708 3.34379 20.4398 3.38518 19.9472 3.55075C18.685 4.00606 13.513 4.17162 12.5894 3.7991C12.1738 3.59214 10.9886 3.46797 9.97268 3.46797C8.95675 3.46797 7.87926 3.3024 7.55601 3.09544C5.6473 1.68813 3.15367 1.48118 2.29168 2.64014C1.93764 3.09544 1.41429 3.55075 1.10643 3.71632C0.64465 3.88188 0.521507 4.17162 0.459936 5.08224C0.413758 5.78589 0.490722 6.57233 0.675435 7.27599C0.844756 7.93825 1.01408 9.46974 1.06025 10.9184C1.12183 12.3671 1.24497 13.4847 1.36811 13.6089C1.49125 13.7331 1.56822 14.7679 1.58361 16.6305C1.64518 24.4535 1.70675 26.5644 1.87607 27.475C1.99921 28.0959 2.04539 29.0893 1.96843 30.2897C1.90686 31.5314 1.93764 32.3179 2.06079 32.7732C2.29168 33.4768 2.27628 35.6706 2.04539 36.4156C1.96843 36.7054 1.93764 37.0365 1.98382 37.1607C2.18393 37.6988 1.89147 39.3958 1.49125 39.9339C0.92172 40.8031 0.475329 43.4936 0.598471 45.439C0.660043 46.6393 0.629257 47.2188 0.413758 47.8397C0.25983 48.295 0.229045 48.6261 0.321401 48.6261C0.598471 48.6261 0.5369 51.3166 0.275223 51.9374C0.136688 52.2272 0.0905096 52.6411 0.152081 52.8067C0.213652 52.9722 0.229045 54.5865 0.167473 56.3663C0.105902 58.1462 0.0443312 60.4227 0.0135456 61.4575C-0.0326327 62.4923 0.0443312 63.941 0.167473 64.7688C0.306009 65.5552 0.382972 66.3831 0.36758 66.59C0.352187 66.797 0.382972 67.2523 0.444544 67.6248C0.613864 68.701 0.675435 69.4047 0.752399 71.3501C0.798578 72.3848 0.890934 73.4196 0.983291 73.7094C1.09104 74.0405 1.06025 74.6614 0.906327 75.6548C0.64465 77.3518 0.798577 78.0141 1.44507 78.0141C1.67597 78.0141 1.89147 78.221 1.92225 78.428C1.95304 78.7177 2.49178 78.7591 3.58467 78.5108C5.17013 78.1797 6.70941 78.428 7.74072 79.2144C8.03319 79.4214 8.77204 80.0009 9.35696 80.4976C9.95728 80.9529 10.7115 81.4496 11.0502 81.5324C11.3734 81.6565 11.789 81.9877 11.9737 82.3188C12.4663 83.1466 12.9589 83.4778 14.2827 83.8089C16.9456 84.4712 18.6234 85.092 19.2853 85.6715C19.6701 86.0026 20.4706 86.3338 21.0555 86.3752C21.9637 86.4166 22.2407 86.251 22.8256 85.3404C23.2105 84.7609 23.9031 84.0986 24.3649 83.8917C25.6425 83.2708 32.5077 83.8089 33.8315 84.6367C34.2625 84.8851 35.5555 85.092 36.7561 85.0093C37.9414 84.9679 40.7275 84.9679 42.9286 84.9679C46.6691 85.0506 47.0077 85.092 47.7004 85.9199C48.3777 86.7063 48.7933 86.8305 51.918 86.9547C54.5502 87.0788 55.6585 86.9547 56.5358 86.4993C57.5518 85.9613 59.3219 85.7543 62.693 85.8371C63.2471 85.8785 64.3708 85.506 65.1866 85.0506C66.0024 84.5953 67.1876 84.2228 67.8187 84.2228C69.2657 84.2228 71.3283 83.188 72.1441 82.0705C72.7598 81.2012 72.8522 81.2012 75.2381 81.6565C78.4859 82.3188 80.7179 81.6565 82.5804 79.4628C84.2121 77.5588 84.7508 76.3998 84.9817 74.3302C85.2434 72.0123 85.228 66.6314 84.9509 64.1893C84.7662 62.6164 84.7508 61.4575 84.8586 59.2223C84.9817 56.4905 84.9509 53.8828 84.7662 51.6477C84.7354 51.151 84.5353 50.2818 84.3352 49.7851C84.1351 49.247 83.935 48.3778 83.8888 47.7983C83.7811 46.5979 84.2582 42.9141 85.1048 38.4024C85.582 35.9189 85.659 35.1739 85.5974 33.5596C85.5358 32.3592 85.582 31.4072 85.7206 30.9105C85.9053 30.1655 86.1054 22.1355 85.9361 22.1355C85.8899 22.1355 85.8437 21.8044 85.8283 21.3905C85.7975 20.5627 85.6436 18.2447 85.5358 16.8374C85.4897 16.1752 85.3665 15.9268 85.0433 15.9268C84.3198 15.9268 83.935 15.4715 83.935 14.6023C83.935 14.1884 83.7657 13.1536 83.5502 12.3258C83.2731 11.1668 83.2115 10.6287 83.3347 10.0492C83.4116 9.6353 83.5656 9.30417 83.6733 9.30417C84.012 9.30417 83.427 8.51773 82.5496 7.81408C81.4875 6.94486 79.625 6.77929 79.625 7.56573C79.625 7.89686 79.548 7.97964 79.4403 7.77269C79.2402 7.44155 77.3161 7.2346 73.237 7.06903C71.082 6.98625 69.8044 6.48955 69.1579 5.57894C69.004 5.37198 68.5884 5.12363 68.219 4.99945C67.8495 4.91667 67.1261 4.41997 66.6335 3.96467C66.1255 3.46797 65.5868 3.17823 65.4329 3.34379C65.2789 3.46797 65.1558 3.38518 65.1558 3.17823C65.1558 2.64014 64.0629 2.64014 63.8166 3.13684C63.7089 3.42658 63.6011 3.38518 63.5396 3.13684C63.478 2.8471 63.3087 2.92988 63.0316 3.42658C62.4005 4.54415 59.5836 5.16502 58.6908 4.41997C58.306 4.08884 57.9366 3.67493 57.8442 3.50936C57.7673 3.34379 57.1516 3.09544 56.5051 2.92988C55.8432 2.76431 55.0427 2.39179 54.7349 2.10205C54.4116 1.81231 53.8729 1.64675 53.5189 1.77092C53.0879 1.8537 52.8108 1.72953 52.6569 1.27422C52.4568 0.777525 52.2413 0.736133 51.4408 1.02587C50.9021 1.23283 49.1011 1.52257 47.4541 1.64675C45.8071 1.81231 44.0831 1.97788 43.6213 2.06066C43.1749 2.14344 42.6208 2.01927 42.3899 1.8537C41.651 1.19144 40.3272 0.984482 35.7556 0.818916C31.7227 0.694742 30.3219 0.529176 28.3671 0.0324774C28.0746 -0.0503056 27.3049 0.0324774 26.6738 0.198043Z" fill="#E5EDFC"/>
</svg>
